<?xml version="1.0" standalone="no"?>
<!DOCTYPE svg PUBLIC "-//W3C//DTD SVG 20010904//EN"
 "http://www.w3.org/TR/2001/REC-SVG-20010904/DTD/svg10.dtd">
<svg version="1.0" xmlns="http://www.w3.org/2000/svg"
 width="300.000000pt" height="300.000000pt" viewBox="0 0 300.000000 300.000000"
 preserveAspectRatio="xMidYMid meet">
<metadata>
Created by potrace 1.10, written by Peter Selinger 2001-2011
</metadata>
<g transform="translate(0.000000,300.000000) scale(0.100000,-0.100000)"
fill="#000000" stroke="none">
<path d="M1273 2850 c-27 -11 -30 -30 -5 -30 14 0 21 -20 39 -117 18 -103 19
-119 6 -130 -20 -16 -2 -23 40 -16 35 5 53 23 24 23 -9 0 -17 24 -23 71 -10
71 -10 71 16 81 40 15 54 -1 61 -73 5 -51 3 -66 -9 -75 -21 -15 -4 -22 41 -17
35 5 53 23 22 23 -12 0 -15 15 -15 73 0 59 -4 77 -18 90 -23 21 -56 22 -87 1
l-24 -16 -7 61 c-7 65 -14 70 -61 51z"/>
<path d="M1591 2827 c-63 -32 -86 -115 -53 -190 25 -55 58 -79 122 -85 46 -4
50 -3 60 22 20 54 1 81 -22 31 -15 -33 -57 -33 -95 -1 -25 22 -28 30 -28 89 0
55 4 69 24 91 44 47 131 42 131 -8 0 -13 7 -26 15 -30 8 -3 15 -4 15 -3 0 1 4
17 10 35 9 32 7 34 -25 48 -42 17 -122 18 -154 1z"/>
<path d="M1141 2714 c-26 -22 -31 -33 -31 -71 0 -88 98 -145 161 -94 18 14 21
23 13 31 -8 8 -14 7 -24 -5 -38 -46 -110 8 -110 84 0 49 46 82 57 41 6 -21 37
-27 48 -9 11 17 -26 49 -56 49 -15 0 -41 -12 -58 -26z"/>
<path d="M1804 2702 c-53 -43 -60 -118 -15 -163 16 -16 40 -29 53 -29 61 0
126 81 113 140 -14 61 -102 92 -151 52z m94 -14 c27 -27 7 -113 -32 -140 -22
-15 -55 -8 -61 13 -23 71 50 170 93 127z"/>
<path d="M973 2665 c-71 -30 -70 -125 3 -180 45 -34 144 -2 144 46 0 25 -8 24
-32 -6 -11 -14 -30 -25 -42 -25 -23 0 -76 34 -76 49 0 4 26 18 58 31 31 13 58
24 60 26 2 1 -4 14 -13 27 -23 36 -64 48 -102 32z m51 -34 c17 -19 16 -20 -23
-39 -40 -20 -40 -20 -47 0 -6 21 20 58 41 58 7 0 20 -9 29 -19z"/>
<path d="M750 2632 c-31 -20 -77 -52 -103 -71 l-47 -35 27 -28 c30 -31 52 -24
33 11 -9 19 -8 25 12 41 13 11 25 19 29 20 5 0 108 -121 137 -162 10 -14 11
-22 2 -33 -21 -25 6 -24 48 3 46 30 55 47 19 38 -16 -4 -26 1 -36 17 -8 12
-38 52 -68 89 -29 37 -53 71 -53 76 0 5 11 15 25 22 21 11 27 11 43 -3 11 -10
23 -13 31 -8 11 7 10 13 -4 35 -10 14 -22 26 -29 25 -6 0 -36 -17 -66 -37z"/>
<path d="M1996 2652 c-3 -6 1 -12 9 -16 22 -8 -41 -136 -67 -136 -31 0 -20
-16 22 -33 39 -15 41 -15 35 3 -5 15 25 82 60 138 5 7 64 -21 68 -32 8 -19
-65 -126 -85 -126 -29 0 -21 -15 19 -34 21 -10 54 -31 75 -48 21 -16 38 -28
39 -26 0 1 2 13 3 25 2 20 68 103 88 111 13 6 58 -27 58 -41 0 -15 -93 -109
-106 -106 -25 4 -25 -4 1 -31 33 -34 45 -38 45 -12 0 10 25 42 55 72 30 30 55
62 55 71 0 21 -46 59 -70 59 -10 0 -20 8 -23 19 -2 10 -17 21 -32 25 -31 8
-47 -1 -26 -14 11 -6 3 -21 -34 -64 -49 -58 -79 -70 -90 -37 -4 13 8 38 35 77
22 31 40 65 40 74 0 27 -34 50 -73 50 -28 0 -35 3 -31 15 4 10 0 15 -14 15
-11 0 -27 3 -35 6 -8 3 -18 1 -21 -4z"/>
<path d="M510 2468 c-20 -34 -16 -63 6 -33 12 16 22 10 113 -70 72 -63 98 -91
91 -100 -5 -7 -7 -15 -3 -19 7 -7 73 53 73 67 0 4 -9 5 -20 2 -16 -5 -42 14
-122 89 -57 53 -106 96 -110 96 -5 0 -17 -14 -28 -32z"/>
<path d="M1408 2473 c-2 -10 -1 -34 3 -53 3 -19 7 -28 8 -20 2 9 8 3 15 -14
l13 -29 6 29 c3 18 -2 43 -14 66 -22 43 -25 45 -31 21z"/>
<path d="M1479 2480 c-1 -5 -3 -23 -5 -40 -10 -75 0 -183 16 -188 6 -2 10 -15
10 -28 0 -30 16 -31 24 -1 9 33 8 37 -10 37 -12 0 -15 6 -10 24 4 15 1 30 -8
39 -15 15 -19 87 -5 87 5 0 8 -3 8 -7 -4 -27 3 -63 12 -63 11 0 9 32 -6 93 -5
17 -3 27 4 27 6 0 11 -11 11 -25 0 -21 5 -25 31 -25 30 0 31 -2 27 -35 -4 -37
8 -47 20 -17 5 12 8 6 12 -23 3 -22 2 -48 -2 -57 -10 -21 0 -68 14 -68 6 0 8
7 4 15 -3 8 -1 15 4 15 6 0 10 -11 10 -25 0 -14 5 -25 10 -25 6 0 10 6 10 14
0 8 3 21 6 30 4 11 0 16 -14 16 -25 0 -33 20 -22 57 5 15 9 20 9 11 1 -25 18
-22 25 5 9 34 8 37 -14 37 -11 0 -20 4 -20 8 0 5 -10 14 -22 20 -18 8 -19 11
-5 11 9 1 17 9 18 19 1 11 4 9 9 -8 l8 -25 7 22 c4 13 12 20 17 17 5 -3 7 -12
4 -20 -3 -8 -2 -14 3 -14 12 0 22 45 15 64 -3 9 -10 16 -16 16 -5 0 -6 -4 -3
-10 3 -5 1 -10 -4 -10 -6 0 -11 7 -11 15 0 8 -5 15 -11 15 -6 0 -9 -7 -6 -14
4 -10 1 -13 -8 -9 -8 3 -12 9 -9 14 3 5 1 9 -4 9 -14 0 -22 -25 -15 -49 3 -12
1 -21 -6 -21 -9 0 -16 36 -12 63 0 4 -3 7 -8 7 -13 0 -21 -27 -15 -45 4 -8 1
-15 -5 -15 -6 0 -11 16 -11 35 0 35 -13 47 -24 23 -5 -10 -7 -10 -12 0 -7 14
-23 16 -25 2z"/>
<path d="M1378 2474 c-2 -5 -6 -26 -7 -46 -3 -43 14 -52 22 -11 5 28 -6 73
-15 57z"/>
<path d="M1310 2455 c0 -8 -4 -15 -10 -15 -5 0 -10 5 -10 10 0 6 -4 10 -9 10
-5 0 -11 -19 -15 -42 -3 -24 -8 -59 -11 -79 -4 -23 -3 -39 4 -43 11 -7 16 18
12 58 -1 11 2 22 7 25 4 3 13 17 19 31 11 24 12 25 12 3 2 -41 21 -24 21 17 0
22 -4 40 -10 40 -5 0 -10 -7 -10 -15z"/>
<path d="M1239 2458 c0 -2 -2 -14 -5 -28 -9 -53 -15 -70 -25 -70 -6 0 -8 4 -4
9 3 5 1 12 -5 16 -5 3 -11 -2 -12 -12 0 -10 -3 -29 -5 -43 -11 -75 -10 -96 5
-113 13 -15 14 -23 5 -48 -7 -17 -9 -38 -6 -47 4 -13 3 -14 -5 -4 -7 11 -10
10 -16 -3 -9 -25 -7 -65 4 -65 6 0 10 7 10 15 0 7 7 18 15 22 20 12 32 143 13
143 -10 0 -10 2 1 9 9 6 10 11 2 15 -17 11 -14 57 3 50 16 -6 29 36 19 62 -4
12 -3 15 5 10 7 -4 13 -1 14 6 5 45 4 69 -3 74 -5 3 -9 4 -10 2z"/>
<path d="M1702 2420 c-3 -44 12 -54 22 -16 6 25 -1 56 -13 56 -4 0 -8 -18 -9
-40z"/>
<path d="M1747 2447 c-7 -18 3 -67 14 -67 4 0 10 12 12 28 3 19 4 14 6 -15 1
-44 20 -61 22 -20 1 16 2 18 6 5 2 -10 8 -18 13 -18 11 0 21 45 14 64 -9 24
-24 19 -24 -6 0 -21 -2 -20 -22 9 -25 36 -33 40 -41 20z"/>
<path d="M1143 2415 c-6 -11 -8 -26 -6 -32 3 -7 -3 -20 -11 -29 -20 -19 -20
-31 -2 -66 15 -28 2 -54 -14 -28 -5 8 -9 7 -14 -5 -12 -31 -7 -65 10 -65 9 0
14 6 11 13 -3 8 -1 20 4 28 7 11 9 9 9 -8 0 -13 5 -23 10 -23 16 0 17 37 2
107 -7 31 -6 40 3 37 17 -7 27 38 16 67 -8 22 -8 23 -18 4z"/>
<path d="M1855 2417 c-4 -9 -5 -31 -3 -47 3 -17 1 -30 -4 -30 -5 0 -6 -5 -2
-11 4 -8 0 -9 -15 -4 -18 5 -21 2 -21 -24 0 -36 17 -42 23 -8 4 19 4 18 6 -5
0 -16 5 -28 10 -28 10 0 24 47 17 59 -3 4 -1 24 5 44 6 24 7 43 0 55 -9 16
-10 16 -16 -1z"/>
<path d="M1340 2390 c0 -16 5 -30 10 -30 6 0 10 14 10 30 0 17 -4 30 -10 30
-5 0 -10 -13 -10 -30z"/>
<path d="M1890 2367 c0 -24 5 -48 12 -55 7 -7 8 -12 2 -12 -6 0 -9 -13 -6 -30
4 -30 22 -43 22 -16 0 8 3 21 6 29 3 8 -1 21 -8 28 -9 9 -12 24 -8 39 7 29 2
60 -11 60 -5 0 -9 -19 -9 -43z"/>
<path d="M1075 2381 c-3 -10 -3 -26 1 -35 3 -9 1 -16 -5 -16 -6 0 -11 -17 -11
-40 0 -22 4 -40 9 -40 11 0 24 48 16 60 -4 6 -2 10 3 10 6 0 13 11 16 24 11
43 -16 78 -29 37z"/>
<path d="M1533 2378 c4 -12 2 -27 -2 -32 -14 -17 -19 -75 -7 -73 17 3 27 50
13 59 -8 5 -7 8 6 8 12 0 17 8 17 30 0 21 -5 30 -16 30 -12 0 -15 -6 -11 -22z"/>
<path d="M1727 2384 c-10 -10 -9 -72 2 -78 5 -3 11 6 14 21 6 30 -5 68 -16 57z"/>
<path d="M1930 2350 c0 -52 14 -52 18 0 1 22 -2 40 -8 40 -5 0 -10 -18 -10
-40z"/>
<path d="M1306 2363 c-4 -11 -3 -31 2 -43 l9 -24 7 27 c3 15 2 35 -3 44 -8 14
-9 14 -15 -4z"/>
<path d="M1378 2352 c-7 -26 1 -62 13 -62 11 0 11 37 0 64 -7 19 -8 19 -13 -2z"/>
<path d="M1686 2354 c-8 -20 3 -64 15 -64 6 0 9 18 7 40 -2 41 -11 52 -22 24z"/>
<path d="M1962 2330 c-2 -23 2 -40 8 -40 5 0 10 9 10 19 0 11 4 22 8 25 4 2 6
-11 4 -30 -5 -39 13 -47 22 -10 7 30 -2 56 -20 56 -8 0 -14 5 -14 10 0 6 -4
10 -8 10 -4 0 -9 -18 -10 -40z"/>
<path d="M1337 2330 c-6 -24 2 -60 14 -60 5 0 9 18 9 40 0 42 -14 54 -23 20z"/>
<path d="M1438 2338 c-8 -18 2 -67 14 -74 5 -3 5 -11 0 -17 -5 -7 -6 -23 -2
-37 l7 -25 12 29 c9 23 9 33 -4 52 -8 13 -12 30 -9 38 3 8 1 22 -4 31 -7 14
-10 15 -14 3z"/>
<path d="M2339 2311 c-59 -58 -50 -119 23 -157 46 -24 58 -2 14 24 -43 25 -49
67 -15 98 23 21 23 21 87 -60 l22 -29 25 23 c57 54 9 140 -77 140 -34 0 -47
-7 -79 -39z m139 -3 c16 -16 15 -43 -2 -58 -12 -9 -20 -5 -45 22 -16 18 -27
36 -25 40 8 12 59 9 72 -4z"/>
<path d="M505 2310 c-17 -34 -11 -61 8 -36 11 14 19 11 70 -25 60 -43 67 -57
41 -83 -22 -23 -31 -21 -108 24 -37 22 -72 40 -77 40 -10 0 -28 -62 -21 -74 3
-5 10 -2 17 7 10 14 18 12 73 -19 34 -19 73 -34 86 -34 27 0 56 24 56 46 0 7
14 26 30 41 33 29 40 49 14 39 -11 -4 -42 13 -90 49 -40 30 -76 55 -78 55 -3
0 -13 -14 -21 -30z"/>
<path d="M980 2315 c0 -14 -4 -25 -9 -25 -18 0 -20 -31 -4 -80 9 -27 19 -50
23 -50 16 0 19 46 4 69 -10 14 -12 26 -6 30 14 9 23 46 16 65 -9 24 -24 19
-24 -9z"/>
<path d="M1750 2328 c0 -7 7 -26 16 -43 9 -18 12 -39 8 -55 -13 -50 -14 -162
-1 -157 7 2 13 21 13 43 1 21 5 68 8 104 7 69 -6 120 -30 120 -8 0 -14 -6 -14
-12z"/>
<path d="M1563 2303 c5 -39 27 -42 27 -4 0 21 -5 31 -15 31 -11 0 -15 -8 -12
-27z"/>
<path d="M1024 2305 c3 -8 1 -15 -5 -15 -11 0 -6 -24 14 -72 15 -35 27 -36 27
-3 0 14 -4 25 -10 25 -5 0 -9 3 -9 8 5 28 -3 72 -12 72 -6 0 -9 -7 -5 -15z"/>
<path d="M2042 2288 c-2 -18 -7 -37 -12 -42 -6 -6 -10 -23 -10 -38 0 -15 -4
-28 -10 -28 -5 0 -10 -18 -10 -40 0 -23 5 -40 11 -40 7 0 9 -10 4 -27 -4 -16
-6 -42 -6 -60 1 -25 -3 -31 -14 -27 -12 5 -15 -3 -15 -36 0 -25 4 -39 10 -35
6 3 10 14 10 23 0 15 2 15 11 2 8 -12 9 -11 5 6 -4 11 1 35 10 52 8 18 13 36
9 42 -3 5 -1 10 4 10 12 0 15 39 5 65 -5 12 -9 13 -14 5 -4 -7 -9 0 -12 19 -3
21 0 31 9 31 7 0 13 5 13 11 0 5 4 7 10 4 7 -4 7 3 0 20 -13 34 -13 35 5 35
12 0 15 10 13 40 -2 48 -23 54 -26 8z"/>
<path d="M1276 2294 c-7 -18 3 -64 14 -64 11 0 19 37 13 60 -6 24 -19 26 -27
4z"/>
<path d="M1237 2294 c-10 -11 -9 -74 2 -74 13 0 23 48 13 66 -4 8 -11 11 -15
8z"/>
<path d="M1408 2288 c-6 -20 -2 -127 5 -135 4 -3 9 -4 11 -2 4 4 9 94 7 132
-1 20 -17 23 -23 5z"/>
<path d="M1716 2275 c-3 -8 -10 -15 -16 -15 -6 0 -8 5 -5 10 3 6 2 10 -4 10
-13 0 -18 -18 -13 -52 5 -32 22 -39 22 -9 0 11 5 23 10 26 6 3 10 -3 10 -14 0
-30 17 -26 23 6 8 43 -13 74 -27 38z"/>
<path d="M2094 2261 c1 -17 -1 -28 -5 -25 -8 5 -19 -20 -19 -43 0 -9 -7 -21
-15 -27 -9 -7 -12 -19 -9 -33 7 -26 24 -21 24 7 0 10 3 20 8 22 30 13 53 128
26 128 -7 0 -11 -12 -10 -29z"/>
<path d="M905 2268 c-9 -22 -2 -68 10 -71 14 -3 19 63 6 76 -7 7 -12 5 -16 -5z"/>
<path d="M1366 2264 c-8 -20 3 -64 15 -64 6 0 9 18 7 40 -2 41 -11 52 -22 24z"/>
<path d="M1869 2237 c-4 -38 -2 -43 14 -39 13 3 17 -2 17 -22 0 -14 5 -26 10
-26 6 0 10 18 10 40 0 22 -5 40 -11 40 -5 0 -7 -4 -4 -10 3 -5 1 -10 -4 -10
-6 0 -11 16 -11 35 0 50 -17 43 -21 -8z"/>
<path d="M1936 2254 c-7 -19 3 -64 15 -64 12 0 12 67 0 74 -5 3 -12 -1 -15
-10z"/>
<path d="M1566 2245 c-9 -24 -7 -63 3 -69 13 -9 24 50 13 70 -8 15 -10 15 -16
-1z"/>
<path d="M1310 2210 c0 -22 -4 -40 -9 -40 -14 0 -22 -29 -15 -56 9 -37 26 -29
22 11 -1 20 2 39 8 43 16 10 26 46 18 66 -11 29 -24 17 -24 -24z"/>
<path d="M1825 2240 c-4 -6 -4 -24 0 -40 5 -23 3 -30 -9 -30 -10 0 -16 -9 -16
-25 0 -36 12 -31 33 14 23 51 16 121 -8 81z"/>
<path d="M1972 2210 c-3 -44 12 -54 22 -16 6 25 -1 56 -13 56 -4 0 -8 -18 -9
-40z"/>
<path d="M2171 2224 c-9 -16 -12 -17 -20 -4 -6 8 -13 11 -17 7 -11 -11 -6 -69
7 -77 6 -4 9 -13 5 -18 -9 -15 4 -62 16 -62 10 0 7 34 -7 93 -5 17 -3 27 4 27
6 0 11 -9 11 -20 0 -11 4 -20 9 -20 14 0 24 57 13 76 -9 16 -10 15 -21 -2z"/>
<path d="M860 2185 c0 -25 4 -45 9 -45 12 0 23 48 16 71 -11 34 -25 20 -25
-26z"/>
<path d="M1260 2218 c0 -9 -8 -22 -17 -27 -17 -10 -17 -10 0 -11 9 0 17 -7 17
-15 0 -8 5 -15 10 -15 6 0 10 4 10 9 0 5 2 15 5 23 3 7 -1 22 -9 33 -13 17
-15 18 -16 3z"/>
<path d="M1533 2217 c3 -10 2 -17 -4 -17 -5 0 -7 -11 -3 -25 4 -16 0 -30 -11
-41 -17 -18 -13 -63 7 -75 6 -4 8 -12 4 -17 -8 -14 3 -62 15 -62 12 0 11 67
-1 75 -5 3 -10 24 -10 45 0 21 5 42 10 45 6 4 10 -12 10 -39 0 -25 5 -46 10
-46 6 0 10 18 10 39 0 22 -4 43 -10 46 -5 3 -10 21 -10 40 0 19 -5 37 -12 41
-8 5 -9 2 -5 -9z"/>
<path d="M936 2195 c-9 -24 -7 -65 3 -65 13 0 23 49 13 66 -8 15 -10 14 -16
-1z"/>
<path d="M820 2168 c0 -19 -2 -20 -10 -8 -9 13 -11 13 -20 0 -5 -8 -8 -26 -5
-40 3 -15 -1 -34 -9 -45 -9 -11 -16 -14 -16 -7 0 17 -17 15 -24 -4 -7 -19 3
-64 15 -64 5 0 9 9 9 20 0 11 5 20 10 20 6 0 10 -7 10 -15 0 -8 5 -15 10 -15
6 0 10 -10 9 -22 -1 -13 -1 -34 -1 -48 2 -18 5 -21 14 -12 9 9 9 23 1 59 -25
104 -25 103 -6 102 10 0 13 -3 7 -5 -12 -5 -7 -51 7 -60 5 -3 9 -23 9 -45 0
-43 14 -52 24 -15 7 28 -1 56 -16 56 -6 0 -8 12 -5 30 4 19 1 34 -8 44 -19 19
-19 27 0 20 19 -8 29 18 21 51 -8 31 -26 33 -26 3z"/>
<path d="M1122 2168 c-6 -13 -11 -17 -11 -10 -1 17 -18 15 -25 -4 -7 -18 3
-64 14 -64 4 0 11 12 16 28 5 20 8 23 11 10 6 -26 20 -22 27 6 6 26 -1 56 -14
56 -4 0 -12 -10 -18 -22z"/>
<path d="M1472 2165 c2 -14 8 -26 13 -26 6 0 11 12 13 26 2 18 -1 25 -13 25
-12 0 -15 -7 -13 -25z"/>
<path d="M1597 2183 c-11 -10 -8 -71 3 -78 6 -3 10 -24 10 -46 0 -21 4 -39 9
-39 12 0 22 45 15 65 -4 10 -2 15 6 13 7 -2 14 9 17 25 3 20 -1 27 -12 27 -11
0 -15 -7 -13 -22 2 -11 -3 -23 -11 -26 -11 -4 -12 3 -8 29 7 34 -3 65 -16 52z"/>
<path d="M1672 2156 c-1 -19 2 -37 7 -40 11 -7 23 37 15 58 -10 26 -20 18 -22
-18z"/>
<path d="M1732 2150 c-3 -44 12 -54 22 -16 6 25 -1 56 -13 56 -4 0 -8 -18 -9
-40z"/>
<path d="M1045 2170 c-7 -12 5 -63 18 -71 6 -4 5 -14 -2 -25 -6 -11 -11 -13
-11 -6 0 6 -4 12 -9 12 -14 0 -22 -29 -15 -56 7 -26 24 -33 24 -10 0 8 5 18
12 22 7 4 8 3 4 -4 -4 -7 -1 -12 8 -12 12 0 16 -10 16 -35 0 -19 4 -35 9 -35
12 0 22 54 10 58 -5 2 -7 8 -3 13 3 5 0 9 -5 9 -6 0 -11 13 -11 29 0 17 -5 33
-11 36 -6 4 -10 19 -9 33 1 15 2 33 1 40 -1 14 -17 16 -26 2z"/>
<path d="M1853 2168 c2 -7 10 -30 18 -50 15 -43 24 -48 32 -17 6 24 -1 49 -14
49 -5 0 -9 7 -9 15 0 8 -7 15 -16 15 -9 0 -14 -6 -11 -12z"/>
<path d="M1932 2164 c-12 -22 -6 -64 9 -64 5 0 9 7 9 16 0 8 5 12 11 9 6 -5 8
-26 4 -60 -8 -58 11 -90 19 -33 8 59 4 108 -9 108 -6 0 -16 10 -22 22 -10 23
-10 23 -21 2z"/>
<path d="M2473 2160 c-39 -23 -67 -73 -57 -103 13 -44 84 -100 84 -67 0 6 -4
10 -10 10 -18 0 -41 59 -31 78 17 32 49 54 88 59 30 4 42 1 58 -17 19 -21 19
-22 -3 -39 -20 -15 -21 -18 -8 -36 12 -16 18 -18 33 -9 24 15 28 46 8 83 -30
58 -103 77 -162 41z"/>
<path d="M293 2143 c-38 -52 -53 -92 -53 -141 0 -162 231 -178 310 -21 28 55
25 73 -14 92 -44 20 -55 2 -18 -29 22 -18 23 -23 12 -45 -22 -41 -42 -59 -81
-69 -90 -24 -187 36 -175 109 9 55 37 87 75 83 39 -4 43 19 6 36 -36 16 -39
16 -62 -15z"/>
<path d="M1226 2143 c4 -16 10 -30 14 -33 3 -3 6 -22 5 -42 -1 -21 2 -38 6
-38 13 0 20 50 9 70 -5 10 -10 30 -10 44 0 17 -6 26 -15 26 -12 0 -14 -7 -9
-27z"/>
<path d="M1336 2155 c-3 -9 -3 -27 0 -41 4 -14 2 -24 -5 -24 -6 0 -11 -7 -11
-15 0 -8 -4 -15 -10 -15 -5 0 -10 5 -10 10 0 25 -16 7 -18 -21 -1 -17 -9 -38
-18 -46 -10 -11 -13 -25 -8 -47 11 -53 25 -49 27 8 1 20 5 36 9 36 4 0 8 9 8
19 0 11 5 23 10 26 6 3 10 -3 10 -14 0 -12 5 -21 10 -21 6 0 10 -6 9 -12 -4
-33 2 -68 12 -68 11 0 10 71 -2 80 -12 9 -15 73 -3 77 6 2 10 -9 9 -27 -2 -36
10 -40 19 -6 7 27 -1 56 -15 56 -4 0 -6 6 -3 14 3 8 1 22 -4 31 -8 16 -9 16
-16 0z"/>
<path d="M1366 2143 c4 -16 8 -30 10 -32 6 -7 11 2 18 32 5 23 3 27 -14 27
-17 0 -19 -4 -14 -27z"/>
<path d="M2107 2164 c-4 -4 -7 -19 -7 -33 0 -18 -3 -22 -9 -13 -7 11 -10 10
-15 -3 -10 -27 -7 -65 5 -65 6 0 8 -7 5 -16 -7 -19 3 -64 15 -64 13 0 11 45
-3 76 -10 22 -10 28 3 38 9 6 19 21 23 33 8 24 -5 58 -17 47z"/>
<path d="M1007 2153 c-4 -3 -7 -21 -7 -40 0 -23 5 -33 15 -33 10 0 15 10 15
28 0 31 -13 56 -23 45z"/>
<path d="M2192 2143 c-11 -20 -6 -63 8 -63 13 0 21 50 11 67 -8 14 -10 14 -19
-4z"/>
<path d="M896 2124 c-8 -22 3 -62 20 -68 8 -3 14 -12 14 -21 0 -8 5 -15 11
-15 6 0 8 -7 5 -16 -7 -19 23 -124 36 -124 4 0 8 6 8 14 0 8 3 21 6 29 3 8 -1
21 -8 28 -18 19 -41 87 -33 99 8 13 -4 50 -16 50 -6 0 -7 -4 -4 -10 3 -5 1
-10 -4 -10 -6 0 -11 14 -11 30 0 32 -14 40 -24 14z"/>
<path d="M965 2131 c-4 -7 -3 -29 1 -49 11 -52 12 -54 13 -84 1 -35 17 -36 24
-2 6 33 -2 66 -15 58 -6 -4 -8 5 -3 24 7 35 -7 73 -20 53z"/>
<path d="M1437 2127 c-6 -17 3 -67 13 -67 10 0 19 50 13 67 -3 7 -9 13 -13 13
-4 0 -10 -6 -13 -13z"/>
<path d="M1702 2100 c-1 -22 3 -40 8 -40 12 0 13 67 2 74 -5 3 -9 -13 -10 -34z"/>
<path d="M1836 2125 c-7 -20 3 -65 15 -65 11 0 11 51 0 68 -7 11 -10 10 -15
-3z"/>
<path d="M2230 2105 c0 -19 -4 -35 -9 -35 -14 0 -22 -29 -15 -56 9 -36 24 -29
24 11 0 19 4 35 9 35 12 0 22 45 15 64 -11 28 -24 17 -24 -19z"/>
<path d="M1397 2101 c-7 -29 3 -70 17 -65 8 3 11 -6 8 -31 -5 -39 13 -48 22
-11 7 27 -1 56 -15 56 -5 0 -9 13 -9 29 0 35 -15 49 -23 22z"/>
<path d="M850 2089 c0 -26 32 -119 41 -119 10 0 18 38 12 60 -6 23 -18 26 -27
8 -3 -7 -4 -1 -1 14 6 29 -2 58 -16 58 -5 0 -9 -10 -9 -21z"/>
<path d="M1123 2024 c3 -42 9 -80 14 -83 5 -3 9 -17 10 -31 0 -14 3 -49 6 -78
4 -32 2 -50 -4 -47 -5 4 -9 1 -9 -4 0 -13 10 -14 29 -2 8 5 13 22 12 37 -1 16
-2 46 -3 67 -1 20 -5 37 -10 37 -5 0 -6 5 -3 10 3 6 2 10 -4 10 -8 0 -28 132
-23 153 1 4 -3 7 -9 7 -7 0 -9 -26 -6 -76z"/>
<path d="M1476 2085 c-9 -23 -8 -65 2 -65 4 0 8 -16 9 -36 2 -55 16 -61 28
-13 4 18 1 31 -10 43 -10 10 -14 24 -10 36 3 11 2 27 -3 36 -8 15 -10 15 -16
-1z"/>
<path d="M1805 2081 c-3 -11 -12 -21 -18 -22 -7 0 -3 -4 8 -9 19 -8 19 -9 -2
-9 -13 -1 -23 -5 -23 -11 0 -17 34 -95 47 -108 7 -7 13 -20 13 -28 0 -8 5 -14
10 -14 13 0 13 51 -1 70 -9 13 -10 12 -5 -3 4 -11 2 -16 -5 -12 -5 4 -9 14 -7
23 1 10 -4 28 -11 40 -7 13 -11 26 -8 28 7 8 37 -26 37 -42 0 -8 5 -14 10 -14
6 0 10 18 10 40 0 22 -5 40 -11 40 -5 0 -7 -4 -4 -10 3 -5 1 -10 -4 -10 -6 0
-11 10 -11 23 0 12 -4 28 -9 36 -7 11 -10 9 -16 -8z"/>
<path d="M1920 2050 c0 -22 4 -40 9 -40 6 0 9 -10 9 -22 -1 -13 -1 -36 0 -53
2 -23 4 -27 12 -15 13 20 13 77 -1 86 -6 3 -9 19 -5 35 3 17 1 29 -5 29 -6 0
-7 5 -4 10 3 6 1 10 -4 10 -6 0 -11 -18 -11 -40z"/>
<path d="M1211 2062 c-10 -20 -3 -72 10 -72 5 0 9 20 9 45 0 49 -4 55 -19 27z"/>
<path d="M1576 2065 c-7 -20 3 -65 15 -65 9 0 6 66 -3 75 -3 3 -8 -1 -12 -10z"/>
<path d="M1662 2055 c4 -33 21 -33 25 0 3 18 -1 25 -12 25 -12 0 -15 -7 -13
-25z"/>
<path d="M1728 2063 c-5 -24 3 -63 12 -63 11 0 21 46 14 64 -8 21 -22 20 -26
-1z"/>
<path d="M2127 2074 c-10 -11 -9 -74 2 -74 13 0 23 48 13 66 -4 8 -11 11 -15
8z"/>
<path d="M2266 2064 c-7 -18 3 -64 14 -64 11 0 19 37 13 60 -6 24 -19 26 -27
4z"/>
<path d="M1878 2058 c0 -7 -2 -26 -4 -43 -2 -16 -6 -47 -10 -67 -4 -23 -2 -38
4 -38 13 0 24 44 16 64 -3 9 -2 16 4 16 13 0 22 35 15 60 -6 22 -22 27 -25 8z"/>
<path d="M2166 2045 c-11 -30 -7 -65 9 -65 17 0 21 46 6 68 -7 11 -10 10 -15
-3z"/>
<path d="M2308 2043 c0 -10 -1 -24 0 -32 0 -8 -6 -20 -14 -28 -18 -18 -19 -76
-1 -70 6 2 12 18 12 35 0 18 5 32 11 32 14 0 26 43 18 64 -8 21 -24 20 -26 -1z"/>
<path d="M1376 2014 c-7 -19 3 -64 15 -64 12 0 12 67 0 74 -5 3 -12 -1 -15
-10z"/>
<path d="M1176 1998 c-6 -27 3 -68 15 -68 12 0 12 77 0 84 -5 3 -11 -4 -15
-16z"/>
<path d="M2043 1950 c-1 -40 2 -70 7 -70 6 0 10 3 11 8 9 82 8 132 -3 132 -9
0 -14 -21 -15 -70z"/>
<path d="M2659 2003 c8 -15 -2 -21 -71 -43 -97 -30 -110 -46 -84 -95 11 -19
25 -35 33 -35 11 0 11 4 3 21 -7 11 -9 27 -6 34 4 12 144 61 151 53 1 -2 7
-16 12 -32 12 -37 38 -50 31 -15 -3 13 -9 32 -13 41 -5 13 0 19 20 24 32 8 28
28 -8 32 -14 2 -31 10 -37 18 -18 21 -44 19 -31 -3z"/>
<path d="M715 1998 c-9 -22 -2 -68 10 -71 14 -3 19 63 6 76 -7 7 -12 5 -16 -5z"/>
<path d="M1690 2001 c0 -17 12 -41 21 -41 5 0 9 11 9 25 0 16 -6 25 -15 25 -8
0 -15 -4 -15 -9z"/>
<path d="M2240 1960 c0 -22 4 -40 9 -40 12 0 22 45 15 64 -11 29 -24 16 -24
-24z"/>
<path d="M757 1977 c-7 -19 3 -67 15 -67 5 0 8 18 6 40 -2 40 -11 52 -21 27z"/>
<path d="M906 1974 c-7 -18 3 -64 13 -64 4 0 6 -18 5 -40 -1 -22 2 -42 6 -45
12 -7 19 46 9 72 -4 12 -9 38 -11 58 -2 37 -12 45 -22 19z"/>
<path d="M1577 1977 c-6 -17 3 -67 13 -67 9 0 18 51 12 68 -5 16 -19 15 -25
-1z"/>
<path d="M1736 1983 c-12 -12 -6 -63 8 -63 9 0 12 -8 8 -25 -2 -14 -8 -25 -12
-25 -11 0 -19 -37 -13 -60 9 -32 18 -23 36 34 17 52 15 86 -4 86 -5 0 -7 11
-3 24 5 23 -7 42 -20 29z"/>
<path d="M671 1973 c4 -26 -2 -63 -10 -58 -13 7 -24 -30 -16 -55 10 -30 25
-24 25 10 0 18 5 30 13 30 9 0 12 -19 10 -72 -4 -84 5 -119 18 -74 4 16 6 41
2 56 -3 15 0 31 6 34 7 4 11 -1 11 -13 0 -12 5 -21 10 -21 6 0 10 18 10 39 0
22 -4 43 -10 46 -5 3 -10 0 -10 -8 0 -19 -26 -17 -27 2 -3 66 -9 91 -20 91 -7
0 -12 -3 -12 -7z"/>
<path d="M1037 1967 c-6 -17 3 -67 13 -67 10 0 19 50 13 67 -3 7 -9 13 -13 13
-4 0 -10 -6 -13 -13z"/>
<path d="M1666 1964 c-7 -19 3 -64 15 -64 5 0 9 -9 9 -20 0 -11 -4 -20 -8 -20
-4 0 -9 -17 -10 -39 -2 -27 2 -40 13 -44 8 -4 15 -16 15 -27 0 -11 5 -20 10
-20 6 0 10 6 10 14 0 8 3 21 6 30 4 11 0 16 -13 16 -15 0 -19 7 -19 35 0 22 5
35 13 35 20 0 16 54 -7 80 -11 12 -17 27 -14 31 3 5 1 9 -4 9 -6 0 -13 -7 -16
-16z"/>
<path d="M2127 1966 c-3 -8 -2 -29 3 -47 5 -17 7 -35 4 -40 -7 -12 7 -59 18
-59 6 0 8 15 6 34 -2 21 0 32 7 30 6 -3 16 8 22 23 10 26 11 26 12 6 1 -13 5
-23 10 -23 11 0 18 36 13 68 -5 25 -22 30 -22 6 0 -9 -9 -18 -20 -21 -11 -3
-20 -14 -20 -24 0 -11 -3 -19 -7 -19 -5 0 -7 18 -7 40 2 40 -9 53 -19 26z"/>
<path d="M1298 1965 c-8 -8 3 -55 13 -55 5 0 9 6 9 14 0 8 3 21 6 30 6 15 -15
23 -28 11z"/>
<path d="M1450 1940 c0 -16 5 -30 10 -30 6 0 10 14 10 30 0 17 -4 30 -10 30
-5 0 -10 -13 -10 -30z"/>
<path d="M1532 1953 c-11 -20 -6 -63 8 -63 13 0 21 50 11 67 -8 14 -10 14 -19
-4z"/>
<path d="M1616 1954 c-7 -18 3 -64 14 -64 10 0 20 50 13 67 -7 18 -20 16 -27
-3z"/>
<path d="M2327 1957 c-7 -17 3 -67 13 -67 11 0 21 46 14 64 -7 19 -20 21 -27
3z"/>
<path d="M866 1945 c-8 -21 3 -65 16 -65 5 0 8 -6 7 -12 -4 -32 2 -68 11 -68
6 0 10 17 8 40 -1 22 -6 40 -10 40 -4 0 -8 12 -8 28 0 37 -15 60 -24 37z"/>
<path d="M1216 1933 c4 -16 10 -30 13 -33 3 -3 6 -41 6 -85 0 -47 4 -80 10
-80 6 0 9 32 7 80 -1 44 -2 95 -3 113 0 25 -5 32 -20 32 -16 0 -18 -5 -13 -27z"/>
<path d="M1412 1920 c-3 -44 12 -54 22 -16 6 25 -1 56 -13 56 -4 0 -8 -18 -9
-40z"/>
<path d="M2086 1944 c-3 -8 -3 -28 0 -42 4 -19 3 -23 -4 -14 -7 11 -10 10 -16
-3 -10 -26 -7 -65 4 -65 6 0 13 8 16 18 4 9 13 32 20 49 11 25 12 38 4 53 -13
24 -16 25 -24 4z"/>
<path d="M1896 1884 c-4 -37 -4 -69 -1 -72 10 -10 18 7 20 45 1 21 6 50 10 66
5 20 4 27 -8 27 -10 0 -16 -18 -21 -66z"/>
<path d="M1072 1900 c-2 -23 2 -40 8 -40 5 0 10 9 10 20 0 11 4 20 8 20 4 0 6
-16 4 -35 -5 -39 12 -48 22 -12 3 12 6 25 6 28 0 7 -47 59 -53 59 -2 0 -4 -18
-5 -40z"/>
<path d="M826 1904 c-7 -18 3 -64 14 -64 4 0 11 11 14 24 6 26 -1 56 -14 56
-4 0 -11 -7 -14 -16z"/>
<path d="M1010 1890 c0 -16 5 -30 10 -30 6 0 10 14 10 30 0 17 -4 30 -10 30
-5 0 -10 -13 -10 -30z"/>
<path d="M1197 1914 c-10 -10 -9 -72 2 -78 5 -3 11 6 14 21 6 30 -5 68 -16 57z"/>
<path d="M1372 1880 c-3 -44 12 -54 22 -16 6 25 -1 56 -13 56 -4 0 -8 -18 -9
-40z"/>
<path d="M1485 1900 c-3 -11 -11 -20 -16 -20 -6 0 -7 5 -4 10 3 6 2 10 -3 10
-15 0 -23 -29 -16 -56 8 -32 20 -30 30 4 5 20 8 23 11 10 6 -26 20 -22 27 6
11 45 -16 78 -29 36z"/>
<path d="M1792 1889 c-1 -17 -7 -39 -12 -49 -12 -23 -13 -70 -2 -70 5 0 9 -15
9 -32 2 -85 9 -138 18 -140 14 -4 19 47 7 69 -6 10 -7 26 -1 41 6 15 5 31 -3
45 -12 23 -17 87 -7 87 11 0 20 47 13 64 -10 25 -20 19 -22 -15z"/>
<path d="M2006 1898 c4 -13 11 -26 17 -29 5 -4 7 -12 3 -17 -8 -14 3 -62 15
-62 4 0 6 15 4 33 -9 72 -18 97 -32 97 -10 0 -12 -6 -7 -22z"/>
<path d="M1277 1890 c-8 -37 -5 -60 8 -60 7 0 9 -13 7 -35 -2 -19 -7 -35 -11
-35 -4 0 -8 -12 -9 -26 -1 -14 -9 -32 -17 -40 -9 -10 -13 -24 -9 -40 4 -15 2
-24 -6 -24 -6 0 -8 5 -5 10 3 6 2 10 -3 10 -14 0 -21 -23 -15 -53 6 -31 23
-37 23 -7 0 10 7 23 16 28 12 6 15 19 12 40 -3 20 0 28 8 25 14 -5 27 38 18
62 -4 10 -2 15 7 13 26 -6 21 54 -11 137 -7 19 -8 18 -13 -5z"/>
<path d="M776 1884 c-7 -19 3 -64 15 -64 5 0 9 18 9 40 0 40 -13 53 -24 24z"/>
<path d="M1318 1888 c-6 -17 3 -68 12 -68 11 0 21 46 14 64 -7 19 -21 21 -26
4z"/>
<path d="M1555 1881 c-7 -24 4 -73 16 -65 12 7 12 71 0 79 -5 3 -12 -3 -16
-14z"/>
<path d="M1856 1884 c-8 -20 3 -64 15 -64 6 0 9 18 7 40 -2 41 -11 52 -22 24z"/>
<path d="M1934 1875 c4 -14 2 -34 -4 -45 -11 -20 -4 -70 10 -70 4 0 7 17 7 38
0 20 3 52 7 70 6 26 5 32 -9 32 -13 0 -16 -6 -11 -25z"/>
<path d="M1972 1860 c-3 -44 12 -54 22 -16 6 25 -1 56 -13 56 -4 0 -8 -18 -9
-40z"/>
<path d="M2262 1860 c-3 -44 12 -54 22 -16 6 25 -1 56 -13 56 -4 0 -8 -18 -9
-40z"/>
<path d="M2302 1860 c-2 -23 2 -40 8 -40 5 0 11 8 11 18 1 9 4 4 8 -13 7 -32
24 -37 29 -10 6 25 -7 67 -18 60 -6 -4 -13 1 -16 9 -11 28 -20 17 -22 -24z"/>
<path d="M2227 1873 c-3 -10 -3 -49 -1 -88 9 -148 9 -165 2 -165 -4 0 -10 9
-13 20 -11 33 -25 22 -25 -19 0 -25 5 -41 15 -45 8 -3 15 -13 15 -21 0 -10 -5
-13 -12 -9 -7 4 -8 3 -4 -4 4 -7 2 -12 -4 -12 -7 0 -14 9 -17 20 -8 30 -23 13
-23 -26 0 -31 -18 -64 -34 -64 -9 0 -7 28 2 32 5 2 12 15 16 31 5 22 3 27 -12
27 -15 0 -18 -6 -15 -24 3 -13 -2 -35 -11 -48 -9 -13 -13 -33 -9 -46 6 -25 23
-30 23 -7 0 8 5 15 10 15 6 0 10 -9 10 -20 0 -28 20 -25 21 3 3 41 5 52 14 71
8 19 9 19 15 0 4 -10 3 -27 -1 -36 -11 -20 -1 -68 13 -68 5 0 8 18 7 40 -2 21
0 42 4 46 4 4 7 20 7 35 0 15 4 29 10 31 10 3 23 82 21 133 -4 158 -7 204 -13
210 -3 4 -8 -2 -11 -12z"/>
<path d="M2385 1878 c-9 -22 -2 -68 10 -71 14 -3 19 63 6 76 -7 7 -12 5 -16
-5z"/>
<path d="M957 1857 c-7 -19 3 -67 15 -67 5 0 8 18 6 40 -2 40 -11 52 -21 27z"/>
<path d="M2184 1846 c-8 -32 -2 -58 14 -64 8 -2 12 9 12 37 0 46 -16 64 -26
27z"/>
<path d="M617 1853 c-4 -3 -7 -19 -7 -35 0 -16 -7 -37 -16 -45 -10 -11 -13
-24 -9 -42 12 -48 26 -42 28 13 1 22 6 36 14 36 8 0 13 12 13 28 0 31 -13 56
-23 45z"/>
<path d="M1406 1845 c-10 -28 -7 -65 7 -65 15 0 21 45 8 67 -7 13 -9 13 -15
-2z"/>
<path d="M1596 1844 c-7 -19 3 -64 15 -64 5 0 9 18 9 40 0 40 -13 53 -24 24z"/>
<path d="M1636 1845 c-11 -30 -7 -65 9 -65 10 0 13 10 11 35 -3 41 -11 53 -20
30z"/>
<path d="M855 1831 c-3 -11 -3 -26 1 -32 3 -6 0 -15 -7 -20 -10 -6 -8 -9 9 -9
17 0 22 6 22 28 0 15 -4 33 -9 41 -7 11 -10 9 -16 -8z"/>
<path d="M996 1835 c-7 -20 3 -65 15 -65 9 0 6 66 -3 75 -3 3 -8 -1 -12 -10z"/>
<path d="M1062 1810 c-2 -22 1 -40 6 -40 12 0 22 48 15 67 -10 25 -19 13 -21
-27z"/>
<path d="M1822 1810 c-3 -44 12 -54 22 -16 6 25 -1 56 -13 56 -4 0 -8 -18 -9
-40z"/>
<path d="M1518 1822 c-7 -26 2 -72 13 -72 5 0 9 6 9 14 0 8 2 20 5 28 3 7 -1
22 -8 32 -13 18 -14 18 -19 -2z"/>
<path d="M810 1790 c0 -22 4 -40 9 -40 12 0 22 45 15 64 -11 29 -24 16 -24
-24z"/>
<path d="M1360 1790 c0 -22 4 -40 9 -40 12 0 22 45 15 64 -11 29 -24 16 -24
-24z"/>
<path d="M1476 1815 c-8 -21 4 -76 15 -69 12 7 12 71 0 78 -5 3 -12 -1 -15 -9z"/>
<path d="M2107 1817 c-7 -18 3 -67 13 -67 11 0 23 57 15 70 -9 14 -22 13 -28
-3z"/>
<path d="M1030 1790 c0 -16 5 -30 10 -30 6 0 10 14 10 30 0 17 -4 30 -10 30
-5 0 -10 -13 -10 -30z"/>
<path d="M1100 1780 c0 -22 4 -40 9 -40 12 0 22 45 15 64 -11 29 -24 16 -24
-24z"/>
<path d="M650 1780 c0 -16 5 -30 10 -30 6 0 10 3 10 8 0 4 3 17 6 30 5 16 2
22 -10 22 -11 0 -16 -9 -16 -30z"/>
<path d="M773 1798 c0 -7 -4 -43 -8 -80 -5 -44 -4 -68 3 -68 5 0 12 10 16 23
8 31 7 39 -3 33 -5 -3 -2 12 5 34 13 37 10 70 -5 70 -4 0 -8 -6 -8 -12z"/>
<path d="M918 1793 c-5 -24 3 -63 12 -63 11 0 19 37 13 60 -7 25 -20 26 -25 3z"/>
<path d="M1966 1795 c-9 -24 -7 -65 3 -65 13 0 23 49 13 66 -8 15 -10 14 -16
-1z"/>
<path d="M2074 1801 c4 -5 1 -11 -5 -13 -12 -4 -2 -58 11 -58 11 0 21 46 14
64 -3 9 -10 16 -16 16 -5 0 -7 -4 -4 -9z"/>
<path d="M2272 1770 c-2 -22 1 -40 6 -40 11 0 20 50 14 68 -8 25 -18 10 -20
-28z"/>
<path d="M2407 1789 c-3 -12 -1 -33 5 -48 l10 -26 10 25 c10 26 3 70 -11 70
-5 0 -11 -9 -14 -21z"/>
<path d="M736 1784 c-7 -19 3 -64 15 -64 12 0 12 67 0 74 -5 3 -12 -1 -15 -10z"/>
<path d="M1864 1791 c4 -5 1 -11 -5 -13 -12 -4 -2 -58 11 -58 9 0 18 51 12 68
-2 7 -8 12 -13 12 -6 0 -8 -4 -5 -9z"/>
<path d="M2007 1794 c-10 -10 -9 -84 2 -84 12 0 22 59 13 76 -5 8 -11 11 -15
8z"/>
<path d="M2307 1786 c-3 -8 -1 -31 4 -52 6 -20 8 -49 4 -63 -7 -30 -14 -123
-8 -103 3 6 10 12 16 12 8 0 12 -24 13 -70 1 -66 7 -90 19 -78 14 14 1 148
-15 158 -9 6 -11 19 -5 46 8 44 8 61 -1 122 -6 42 -17 54 -27 28z"/>
<path d="M1186 1768 c-6 -27 3 -68 15 -68 11 0 9 79 -2 86 -4 2 -9 -6 -13 -18z"/>
<path d="M1568 1773 c0 -10 -1 -24 0 -32 0 -8 -4 -25 -9 -38 -10 -27 -2 -73
12 -73 5 0 9 15 9 34 0 19 5 47 10 62 11 28 5 64 -11 64 -5 0 -10 -8 -11 -17z"/>
<path d="M1904 1781 c4 -5 2 -11 -3 -13 -5 -1 -7 -15 -4 -30 3 -15 9 -25 14
-22 5 2 11 -7 15 -21 8 -32 20 -32 28 1 8 31 -12 63 -25 42 -6 -8 -9 -1 -9 20
0 17 -5 32 -11 32 -5 0 -8 -4 -5 -9z"/>
<path d="M1332 1765 c-11 -21 -5 -75 8 -75 13 0 21 47 11 71 -8 23 -8 23 -19
4z"/>
<path d="M1735 1760 c-3 -11 -3 -30 1 -42 4 -13 8 -57 9 -98 1 -41 3 -81 4
-87 2 -19 19 -16 24 5 3 13 6 10 11 -10 9 -30 26 -38 26 -12 0 8 4 13 10 9 5
-3 7 -12 3 -20 -3 -9 1 -15 11 -15 17 0 22 33 10 64 -6 15 -8 15 -20 -1 -12
-17 -13 -17 -14 5 0 23 -20 32 -20 10 0 -7 -6 -4 -12 7 -12 19 -17 66 -17 152
0 45 -16 65 -26 33z"/>
<path d="M2366 1764 c-7 -18 3 -64 14 -64 10 0 20 50 13 67 -7 18 -20 16 -27
-3z"/>
<path d="M880 1740 c0 -16 5 -30 10 -30 6 0 10 3 10 8 0 4 3 17 6 30 5 16 2
22 -10 22 -11 0 -16 -9 -16 -30z"/>
<path d="M1436 1763 c-10 -10 -7 -71 4 -78 5 -3 9 -21 8 -40 -1 -33 7 -54 16
-44 14 13 16 58 4 69 -8 8 -12 28 -10 50 4 36 -7 57 -22 43z"/>
<path d="M1617 1757 c-7 -17 3 -67 13 -67 11 0 21 46 14 64 -7 19 -20 21 -27
3z"/>
<path d="M836 1752 c-7 -11 4 -52 14 -52 10 0 18 31 13 48 -5 14 -19 16 -27 4z"/>
<path d="M956 1697 c1 -34 6 -85 11 -114 6 -29 6 -58 1 -67 -9 -17 -1 -66 12
-66 18 0 20 99 3 195 -5 28 -6 65 -2 83 5 26 3 32 -10 32 -13 0 -16 -11 -15
-63z"/>
<path d="M1007 1753 c-11 -11 -8 -73 4 -73 6 0 8 -7 5 -16 -8 -20 3 -64 15
-64 6 0 9 18 7 40 -1 22 -6 40 -11 40 -5 0 -6 12 -3 28 6 28 -5 58 -17 45z"/>
<path d="M1133 1733 c5 -39 27 -42 27 -4 0 21 -5 31 -15 31 -11 0 -15 -8 -12
-27z"/>
<path d="M2146 1738 c-8 -37 -4 -58 11 -58 9 0 13 13 13 40 0 43 -17 55 -24
18z"/>
<path d="M1045 1723 c3 -51 5 -56 13 -49 12 13 10 76 -3 76 -7 0 -11 -11 -10
-27z"/>
<path d="M2040 1710 c0 -22 4 -40 9 -40 11 0 21 49 14 67 -10 27 -23 12 -23
-27z"/>
<path d="M2192 1710 c-2 -23 2 -40 8 -40 15 0 23 26 16 55 -10 38 -22 30 -24
-15z"/>
<path d="M624 1718 c3 -13 6 -26 6 -30 0 -5 5 -8 10 -8 6 0 10 14 10 30 0 21
-5 30 -16 30 -12 0 -15 -6 -10 -22z"/>
<path d="M800 1700 c0 -42 14 -54 23 -20 6 24 -2 60 -14 60 -5 0 -9 -18 -9
-40z"/>
<path d="M1662 1700 c-2 -23 2 -40 8 -40 5 0 10 8 10 17 0 23 18 4 20 -22 5
-47 -1 -95 -11 -95 -7 0 -9 10 -5 24 7 28 -2 58 -15 50 -17 -10 -10 -71 8 -78
12 -5 14 -9 6 -14 -13 -8 -6 -52 8 -52 5 0 10 8 11 18 2 33 4 37 13 52 5 8 10
43 10 78 1 53 -1 62 -16 62 -10 0 -21 9 -24 20 -10 32 -21 23 -23 -20z"/>
<path d="M2096 1725 c-11 -30 -7 -65 9 -65 17 0 21 46 6 68 -7 11 -10 10 -15
-3z"/>
<path d="M1082 1690 c-3 -44 12 -54 22 -16 6 25 -1 56 -13 56 -4 0 -8 -18 -9
-40z"/>
<path d="M1505 1710 c-3 -11 -4 -24 -1 -29 4 -5 8 -33 11 -62 3 -29 7 -55 10
-57 14 -14 18 23 11 98 -2 19 -4 43 -5 53 -1 23 -18 22 -26 -3z"/>
<path d="M660 1690 c0 -16 5 -30 10 -30 6 0 10 6 10 14 0 8 3 21 6 30 4 11 1
16 -10 16 -11 0 -16 -9 -16 -30z"/>
<path d="M695 1695 c-3 -17 -11 -40 -16 -53 -15 -37 -11 -72 7 -72 13 0 15 8
12 34 -2 19 -1 33 3 30 11 -6 20 57 10 74 -8 14 -11 11 -16 -13z"/>
<path d="M1400 1681 c0 -22 4 -42 9 -45 11 -7 20 39 14 65 -9 33 -23 21 -23
-20z"/>
<path d="M1826 1704 c-7 -18 3 -64 14 -64 4 0 11 11 14 24 6 26 -1 56 -14 56
-4 0 -11 -7 -14 -16z"/>
<path d="M2436 1705 c-3 -8 -3 -28 0 -44 4 -16 1 -32 -5 -35 -14 -9 -15 -86
-1 -86 10 0 15 27 11 68 -1 12 2 22 7 22 5 0 12 13 15 30 7 31 0 60 -13 60 -4
0 -10 -7 -14 -15z"/>
<path d="M910 1670 c0 -22 3 -40 8 -40 4 0 6 -20 4 -45 -2 -25 0 -45 6 -45 14
0 21 50 11 78 -5 14 -7 32 -4 42 6 20 -3 50 -16 50 -5 0 -9 -18 -9 -40z"/>
<path d="M1356 1694 c-7 -18 3 -64 14 -64 11 0 19 50 8 56 -4 3 -6 10 -3 15 4
5 2 9 -3 9 -6 0 -13 -7 -16 -16z"/>
<path d="M1872 1670 c-3 -42 12 -55 23 -20 7 22 -2 60 -14 60 -4 0 -8 -18 -9
-40z"/>
<path d="M2272 1670 c-3 -44 12 -54 22 -16 6 25 -1 56 -13 56 -4 0 -8 -18 -9
-40z"/>
<path d="M876 1684 c-8 -20 3 -64 15 -64 6 0 9 18 7 40 -2 41 -11 52 -22 24z"/>
<path d="M1297 1681 c-6 -25 3 -71 15 -71 5 0 6 -5 3 -10 -4 -6 -1 -26 5 -46
8 -25 16 -34 27 -30 8 3 17 6 19 6 9 0 3 79 -6 85 -6 4 -10 -12 -10 -40 0 -27
-4 -44 -10 -40 -5 3 -7 24 -5 45 2 22 -1 40 -6 40 -5 0 -9 10 -8 23 3 36 0 57
-10 57 -5 0 -11 -9 -14 -19z"/>
<path d="M1990 1661 c0 -22 4 -42 9 -45 11 -7 23 48 15 69 -11 28 -24 15 -24
-24z"/>
<path d="M2396 1685 c-8 -21 4 -76 15 -69 12 7 12 71 0 78 -5 3 -12 -1 -15 -9z"/>
<path d="M566 1674 c-7 -18 3 -64 14 -64 4 0 11 11 14 24 6 26 -1 56 -14 56
-4 0 -11 -7 -14 -16z"/>
<path d="M835 1670 c-3 -11 -3 -25 0 -30 14 -22 13 -103 -1 -117 -12 -13 -11
-57 2 -72 9 -10 18 12 18 44 0 19 3 35 7 35 12 0 16 62 5 73 -7 5 -10 25 -8
42 4 37 -13 56 -23 25z"/>
<path d="M1127 1677 c-6 -17 3 -67 13 -67 10 0 19 50 13 67 -3 7 -9 13 -13 13
-4 0 -10 -6 -13 -13z"/>
<path d="M1596 1675 c-9 -24 -7 -65 3 -65 13 0 23 49 13 66 -8 15 -10 14 -16
-1z"/>
<path d="M1955 1660 c-3 -11 -3 -25 1 -31 4 -7 6 -36 5 -66 -1 -41 2 -54 11
-50 7 2 13 19 12 38 -3 116 -14 157 -29 109z"/>
<path d="M722 1638 c0 -18 -4 -50 -8 -72 -5 -30 -4 -38 7 -34 9 3 14 19 13 41
-1 21 3 37 7 37 5 0 9 14 9 30 0 42 -26 40 -28 -2z"/>
<path d="M1168 1652 c-10 -37 2 -72 26 -72 15 0 17 3 7 9 -7 5 -11 17 -7 28 3
10 0 27 -7 38 -13 17 -14 17 -19 -3z"/>
<path d="M622 1620 c-2 -29 1 -40 12 -40 10 0 13 9 12 33 -4 44 -5 47 -14 47
-4 0 -9 -18 -10 -40z"/>
<path d="M1630 1630 c0 -16 -4 -30 -9 -30 -14 0 -22 -29 -15 -56 3 -13 12 -24
20 -24 8 0 14 -7 14 -15 0 -8 3 -15 8 -15 11 0 4 -98 -14 -202 -4 -23 -2 -38
4 -38 13 0 24 44 16 64 -3 9 -2 16 4 16 13 0 23 -27 16 -45 -5 -11 -2 -13 10
-9 9 3 16 17 16 30 0 13 4 24 9 24 14 0 23 49 12 67 -5 11 -5 26 0 41 11 28 2
65 -12 56 -6 -3 -9 -37 -6 -80 4 -68 3 -74 -16 -74 -15 0 -18 5 -15 25 3 14 1
25 -5 25 -7 0 -7 4 1 12 14 14 16 58 3 90 -5 13 -12 36 -16 52 -5 23 -8 27
-16 15 -6 -10 -9 -7 -9 13 0 14 4 28 9 30 5 2 13 15 16 31 6 21 4 27 -9 27
-11 0 -16 -9 -16 -30z"/>
<path d="M1913 1653 c4 -3 3 -11 -3 -18 -10 -12 -2 -55 10 -55 11 0 21 46 14
64 -3 9 -11 16 -17 16 -6 0 -7 -3 -4 -7z"/>
<path d="M2046 1644 c-11 -29 -6 -64 9 -64 10 0 15 10 15 34 0 38 -14 55 -24
30z"/>
<path d="M2135 1641 c-3 -11 -3 -31 1 -45 4 -18 2 -26 -7 -26 -7 0 -10 -2 -7
-5 3 -3 13 -3 22 1 11 4 16 18 16 44 0 43 -15 61 -25 31z"/>
<path d="M2356 1644 c-7 -17 2 -64 13 -64 3 0 6 -14 7 -30 2 -55 27 -54 27 1
0 17 -5 34 -11 38 -6 4 -12 21 -14 39 -2 34 -12 42 -22 16z"/>
<path d="M1056 1635 c-11 -30 -7 -65 9 -65 10 0 13 10 11 35 -3 41 -11 53 -20
30z"/>
<path d="M2086 1642 c-4 -6 -6 -28 -6 -49 1 -21 0 -45 -1 -53 -4 -30 1 -60 11
-60 6 0 11 17 10 38 0 20 2 51 6 69 6 33 -8 74 -20 55z"/>
<path d="M768 1623 c0 -10 0 -26 0 -36 1 -10 -5 -25 -14 -34 -8 -9 -13 -22
-10 -30 3 -8 6 -21 6 -29 0 -8 5 -14 11 -14 7 0 10 14 7 35 -3 22 1 36 9 40 9
3 13 18 11 41 -2 37 -17 58 -20 27z"/>
<path d="M800 1600 c0 -22 4 -40 9 -40 11 0 21 49 14 67 -10 27 -23 12 -23
-27z"/>
<path d="M1095 1621 c-7 -22 4 -73 14 -67 11 7 13 74 2 80 -5 4 -12 -2 -16
-13z"/>
<path d="M1395 1610 c3 -5 3 -10 -2 -10 -8 0 -12 -39 -13 -129 0 -53 -1 -54
-18 -36 -11 12 -16 30 -14 47 3 21 0 28 -12 28 -13 0 -15 -6 -10 -27 4 -16 9
-32 12 -37 14 -24 5 -61 -20 -90 -15 -17 -28 -41 -28 -53 0 -13 -4 -23 -9 -23
-13 0 -23 -34 -15 -54 7 -19 24 -21 24 -3 0 21 30 77 41 77 18 0 21 -30 4 -46
-11 -11 -14 -24 -10 -38 8 -24 8 -41 2 -116 -2 -30 -1 -64 3 -75 8 -19 8 -19
18 5 8 18 11 20 11 8 1 -10 5 -18 10 -18 11 0 24 48 16 60 -4 6 -2 10 3 10 13
0 24 44 16 64 -10 26 -20 18 -22 -16 -2 -18 -7 -34 -12 -36 -6 -2 -10 -10 -10
-18 0 -8 -4 -14 -10 -14 -12 0 -12 7 -1 45 4 17 5 54 1 83 -5 41 -3 55 7 59
18 7 16 54 -4 83 -12 17 -13 25 -5 28 7 2 12 13 12 25 0 16 3 18 11 10 7 -7
11 -37 10 -67 0 -31 3 -56 9 -56 6 0 9 51 7 130 -1 72 1 130 4 130 9 0 18 51
12 67 -3 7 -9 13 -15 13 -5 0 -6 -4 -3 -10z"/>
<path d="M1476 1604 c-8 -20 3 -64 15 -64 6 0 9 18 7 40 -2 41 -11 52 -22 24z"/>
<path d="M1857 1607 c-7 -17 3 -67 13 -67 11 0 21 46 14 64 -7 19 -20 21 -27
3z"/>
<path d="M1264 1601 c4 -5 1 -11 -5 -13 -7 -2 -7 -13 2 -33 l12 -30 8 28 c8
31 3 57 -13 57 -5 0 -7 -4 -4 -9z"/>
<path d="M1556 1594 c-7 -19 3 -64 15 -64 5 0 9 18 9 40 0 40 -13 53 -24 24z"/>
<path d="M886 1584 c-8 -20 3 -64 15 -64 6 0 9 18 7 40 -2 41 -11 52 -22 24z"/>
<path d="M1136 1585 c-9 -24 -7 -65 3 -65 13 0 23 49 13 66 -8 15 -10 14 -16
-1z"/>
<path d="M2257 1580 c-6 -23 2 -60 13 -60 11 0 19 37 13 60 -3 11 -9 20 -13
20 -4 0 -10 -9 -13 -20z"/>
<path d="M2460 1561 c0 -21 -3 -59 -6 -85 -6 -38 -4 -46 9 -46 13 0 15 9 13
38 -2 20 1 50 5 67 10 32 3 65 -12 65 -5 0 -9 -17 -9 -39z"/>
<path d="M1010 1551 c0 -25 5 -41 15 -45 8 -3 15 -12 15 -21 0 -8 5 -15 10
-15 6 0 10 18 10 40 0 22 -5 40 -11 40 -5 0 -7 -4 -4 -10 3 -5 1 -10 -5 -10
-7 0 -10 7 -6 15 6 18 -2 45 -15 45 -5 0 -9 -18 -9 -39z"/>
<path d="M1432 1550 c-3 -44 12 -54 22 -16 6 25 -1 56 -13 56 -4 0 -8 -18 -9
-40z"/>
<path d="M2010 1550 c0 -22 4 -40 9 -40 12 0 22 45 15 64 -11 29 -24 16 -24
-24z"/>
<path d="M550 1540 c0 -22 4 -40 9 -40 12 0 22 45 15 64 -11 29 -24 16 -24
-24z"/>
<path d="M595 1547 c-4 -14 -4 -31 0 -37 4 -7 9 -32 10 -57 4 -46 10 -61 21
-50 13 12 -1 145 -16 161 -5 5 -12 -2 -15 -17z"/>
<path d="M645 1548 c-7 -31 -1 -61 13 -66 8 -2 12 10 12 37 0 45 -17 64 -25
29z"/>
<path d="M1190 1550 c0 -11 -5 -20 -11 -20 -5 0 -7 5 -4 10 3 6 1 10 -4 10 -6
0 -11 -18 -11 -40 0 -22 5 -40 10 -40 6 0 10 9 10 20 0 11 6 20 14 20 8 0 16
13 18 30 3 20 0 30 -9 30 -7 0 -13 -9 -13 -20z"/>
<path d="M1896 1555 c-3 -9 -6 -26 -6 -38 0 -16 -3 -18 -9 -9 -7 11 -10 10
-15 -3 -9 -25 -7 -65 4 -65 6 0 10 6 10 14 0 8 6 21 13 28 8 7 16 20 20 28 3
10 6 7 6 -7 1 -13 7 -23 14 -23 8 0 13 -13 13 -35 0 -54 17 -62 29 -14 4 18 1
31 -9 42 -9 8 -16 27 -16 41 0 16 -6 26 -15 26 -7 0 -18 7 -23 16 -8 15 -10
15 -16 -1z"/>
<path d="M1079 1550 c-5 -39 -4 -70 2 -70 13 0 20 51 10 68 -9 14 -11 14 -12
2z"/>
<path d="M788 1544 c-2 -5 -6 -26 -7 -46 -3 -43 14 -52 22 -11 5 28 -6 73 -15
57z"/>
<path d="M1525 1528 c-8 -32 -4 -58 10 -61 14 -3 18 49 6 70 -8 16 -10 15 -16
-9z"/>
<path d="M2294 1528 c3 -13 6 -27 6 -31 0 -5 5 -5 10 -2 17 10 12 55 -6 55
-12 0 -15 -6 -10 -22z"/>
<path d="M1228 1510 c2 -16 8 -30 13 -30 5 0 9 14 9 30 0 18 -5 30 -13 30 -9
0 -12 -10 -9 -30z"/>
<path d="M2040 1500 c0 -43 15 -55 22 -17 5 29 -1 57 -13 57 -5 0 -9 -18 -9
-40z"/>
<path d="M919 1518 c-2 -16 -7 -71 -11 -117 -2 -19 2 -36 7 -38 13 -4 15 40 2
48 -4 3 -1 13 7 22 18 17 22 97 6 97 -5 0 -11 -6 -11 -12z"/>
<path d="M1293 1500 c3 -39 13 -39 19 0 3 20 0 30 -8 30 -8 0 -12 -11 -11 -30z"/>
<path d="M1467 1524 c-10 -11 -9 -74 2 -74 13 0 23 48 13 66 -4 8 -11 11 -15
8z"/>
<path d="M2236 1513 c-4 -11 -3 -31 2 -43 l9 -24 7 27 c3 15 2 35 -3 44 -8 14
-9 14 -15 -4z"/>
<path d="M2414 1493 c1 -20 6 -38 13 -40 7 -3 10 7 9 29 -4 46 -5 48 -15 48
-4 0 -8 -16 -7 -37z"/>
<path d="M687 1514 c-10 -10 -9 -84 2 -84 10 0 9 -85 -1 -96 -11 -10 -10 -72
1 -78 12 -8 23 41 16 65 -4 11 -2 19 4 19 14 0 14 77 0 86 -6 3 -9 18 -6 33 5
29 -5 66 -16 55z"/>
<path d="M1566 1502 c-8 -25 1 -62 15 -62 5 0 9 4 9 9 0 5 2 15 5 23 3 7 -1
22 -9 33 -13 18 -14 18 -20 -3z"/>
<path d="M727 1504 c-10 -10 -9 -74 2 -74 5 0 11 9 14 21 6 24 -5 63 -16 53z"/>
<path d="M1109 1508 c-1 -5 -3 -12 -4 -18 -1 -5 -3 -19 -4 -31 0 -11 -5 -18
-10 -15 -5 3 -12 -1 -15 -10 -8 -20 2 -56 18 -66 7 -5 7 -16 -2 -40 -11 -33
-7 -78 8 -78 12 0 18 46 8 64 -6 10 -5 16 2 16 5 0 10 6 10 14 0 8 6 21 13 28
19 19 28 48 22 70 -9 27 -25 12 -25 -25 0 -22 -3 -28 -9 -18 -7 11 -9 11 -14
0 -3 -8 -6 -4 -6 9 -1 12 3 22 8 22 14 0 23 49 12 68 -6 9 -11 14 -12 10z"/>
<path d="M1740 1471 c0 -22 4 -42 8 -45 12 -7 2 -69 -12 -79 -6 -4 0 -5 14 -3
28 4 29 12 12 154 -1 6 -6 12 -12 12 -5 0 -10 -18 -10 -39z"/>
<path d="M210 1489 c-52 -21 -78 -92 -47 -132 12 -17 57 -14 57 3 0 5 -10 10
-22 12 -27 4 -35 35 -16 61 33 44 152 38 164 -8 7 -28 -1 -45 -22 -45 -8 0
-14 -5 -14 -11 0 -7 9 -9 23 -5 12 3 26 6 30 6 5 0 7 19 5 42 -2 30 -10 46
-29 60 -31 23 -94 32 -129 17z"/>
<path d="M872 1460 c-3 -44 12 -54 22 -16 6 25 -1 56 -13 56 -4 0 -8 -18 -9
-40z"/>
<path d="M1196 1484 c-7 -18 3 -64 14 -64 11 0 19 37 13 60 -6 24 -19 26 -27
4z"/>
<path d="M1260 1479 c0 -11 -4 -18 -9 -15 -10 7 -19 -30 -13 -56 5 -27 22 -21
22 7 0 14 5 25 10 25 6 0 10 14 10 30 0 17 -4 30 -10 30 -5 0 -10 -9 -10 -21z"/>
<path d="M1416 1484 c-8 -20 3 -64 15 -64 6 0 9 18 7 40 -2 41 -11 52 -22 24z"/>
<path d="M1987 1487 c-7 -17 3 -67 13 -67 11 0 21 46 14 64 -7 19 -20 21 -27
3z"/>
<path d="M2270 1471 c0 -35 -9 -61 -21 -61 -5 0 -9 8 -10 18 -1 31 -19 -27
-19 -61 0 -18 0 -43 0 -57 -2 -85 1 -140 9 -140 15 0 18 32 14 129 -3 64 0 91
7 86 6 -4 9 -13 8 -20 -2 -8 2 -13 7 -12 6 1 10 19 9 40 0 20 3 37 8 37 4 0 8
16 8 35 0 19 -4 35 -10 35 -5 0 -10 -13 -10 -29z"/>
<path d="M2685 1481 c-7 -24 3 -49 25 -61 24 -13 45 -4 65 26 16 24 39 31 49
15 9 -14 -4 -39 -22 -44 -15 -3 -15 -5 1 -12 23 -10 40 6 40 39 0 59 -49 74
-85 26 -12 -16 -27 -30 -34 -30 -21 0 -28 22 -11 35 22 16 21 25 -2 25 -11 0
-22 -8 -26 -19z"/>
<path d="M556 1472 c-3 -9 -2 -31 2 -47 5 -17 7 -47 6 -67 -1 -28 2 -38 13
-38 10 0 13 -6 9 -16 -8 -20 3 -64 16 -64 11 0 8 72 -4 80 -4 3 -8 22 -10 43
-1 20 -6 37 -10 37 -4 0 -3 11 2 24 9 25 3 66 -10 66 -5 0 -11 -8 -14 -18z"/>
<path d="M1006 1475 c-3 -9 -6 -23 -6 -32 0 -8 -7 -21 -16 -30 -14 -14 -16
-14 -21 6 -3 11 -9 18 -14 15 -12 -7 -11 -84 1 -84 6 0 10 9 10 21 0 11 5 17
10 14 6 -3 10 -15 10 -26 0 -10 7 -19 15 -19 8 0 15 -7 15 -15 0 -21 18 -19
23 3 3 10 5 6 6 -10 1 -18 7 -28 16 -28 10 0 15 10 15 28 0 30 -19 70 -20 42
0 -11 -4 -9 -12 5 -6 11 -18 25 -27 31 -13 10 -13 13 2 28 19 19 21 34 8 54
-7 11 -10 10 -15 -3z"/>
<path d="M1606 1464 c-7 -19 3 -64 15 -64 5 0 9 18 9 40 0 40 -13 53 -24 24z"/>
<path d="M1785 1460 c-4 -11 0 -33 8 -49 8 -16 11 -33 6 -38 -10 -10 -1 -53
11 -53 13 0 21 49 11 69 -6 10 -11 35 -13 55 -2 40 -13 47 -23 16z"/>
<path d="M1907 1464 c-10 -10 -9 -72 2 -78 12 -8 23 52 13 70 -5 8 -11 11 -15
8z"/>
<path d="M750 1420 c0 -22 4 -40 9 -40 12 0 22 45 15 64 -11 29 -24 16 -24
-24z"/>
<path d="M1037 1440 c-6 -24 2 -60 14 -60 12 0 12 67 0 74 -5 3 -11 -3 -14
-14z"/>
<path d="M1306 1443 c-4 -11 -3 -31 2 -43 l9 -24 7 27 c3 15 2 35 -3 44 -8 14
-9 14 -15 -4z"/>
<path d="M1824 1438 c3 -13 6 -26 6 -30 0 -5 5 -8 10 -8 6 0 10 14 10 30 0 21
-5 30 -16 30 -12 0 -15 -6 -10 -22z"/>
<path d="M2300 1430 c0 -16 5 -30 10 -30 6 0 10 3 10 8 0 4 3 17 6 30 5 16 2
22 -10 22 -11 0 -16 -9 -16 -30z"/>
<path d="M2376 1433 c4 -16 10 -30 13 -33 3 -3 7 -21 8 -40 0 -19 -1 -29 -4
-22 -9 23 -19 12 -21 -25 -2 -21 2 -40 10 -44 7 -5 11 -23 10 -44 -3 -26 0
-35 12 -35 21 0 21 53 0 74 -16 16 -11 56 7 56 5 0 9 18 9 40 0 23 -5 40 -11
40 -7 0 -9 11 -5 30 5 25 2 30 -14 30 -17 0 -19 -4 -14 -27z"/>
<path d="M1177 1443 c-11 -10 -8 -73 3 -73 6 0 10 18 10 40 0 41 -2 45 -13 33z"/>
<path d="M2025 1440 c-9 -14 4 -70 16 -70 5 0 9 18 9 40 0 38 -12 52 -25 30z"/>
<path d="M658 1434 c-2 -5 -6 -26 -7 -46 -3 -43 14 -52 22 -11 5 28 -6 73 -15
57z"/>
<path d="M827 1427 c-6 -17 3 -67 13 -67 10 0 19 50 13 67 -3 7 -9 13 -13 13
-4 0 -10 -6 -13 -13z"/>
<path d="M1447 1420 c-6 -23 2 -60 13 -60 11 0 19 37 13 60 -3 11 -9 20 -13
20 -4 0 -10 -9 -13 -20z"/>
<path d="M1490 1395 c0 -28 4 -44 10 -40 6 3 10 21 10 40 0 19 -4 37 -10 40
-6 4 -10 -12 -10 -40z"/>
<path d="M2066 1423 c-4 -11 -2 -31 3 -44 l9 -24 7 27 c4 15 2 34 -3 44 -9 16
-10 16 -16 -3z"/>
<path d="M1526 1414 c-11 -29 -7 -64 9 -64 9 0 12 6 9 15 -4 8 -1 15 5 15 6 0
11 -9 11 -20 0 -11 4 -20 9 -20 11 0 20 46 14 71 -7 24 -23 25 -23 2 -1 -17
-1 -17 -14 0 -12 16 -14 16 -20 1z"/>
<path d="M1866 1415 c-9 -24 -7 -65 3 -65 13 0 23 49 13 66 -8 15 -10 14 -16
-1z"/>
<path d="M2326 1405 c-3 -8 -4 -21 -2 -27 1 -7 1 -10 -1 -5 -3 4 -9 5 -14 1
-12 -7 -12 -74 1 -74 6 0 10 7 10 15 0 9 6 18 14 21 8 3 17 16 20 29 10 40
-14 75 -28 40z"/>
<path d="M2436 1405 c-7 -20 4 -75 15 -75 12 0 12 77 0 84 -5 3 -12 -1 -15 -9z"/>
<path d="M1204 1383 c-3 -18 -10 -33 -13 -33 -4 0 -8 -18 -9 -40 -4 -56 10
-50 31 15 13 39 15 60 8 72 -9 16 -11 13 -17 -14z"/>
<path d="M1271 1398 c1 -15 17 -55 19 -48 11 35 9 60 -5 60 -8 0 -15 -6 -14
-12z"/>
<path d="M866 1385 c-8 -21 3 -67 15 -59 11 7 11 45 0 62 -7 11 -10 10 -15 -3z"/>
<path d="M1977 1387 c-7 -17 3 -67 13 -67 11 0 21 46 14 64 -7 19 -20 21 -27
3z"/>
<path d="M2107 1385 c-4 -9 -7 -25 -7 -36 0 -11 -7 -19 -16 -19 -12 0 -15 -6
-10 -22 3 -13 6 -26 6 -30 0 -5 4 -8 10 -8 5 0 7 6 4 14 -3 7 1 20 9 27 8 8
16 21 20 29 4 11 7 9 12 -7 4 -13 11 -23 15 -23 9 0 18 51 12 68 -6 18 -22 14
-22 -5 -1 -14 -4 -13 -14 6 -11 20 -14 21 -19 6z"/>
<path d="M2692 1384 c-29 -20 -28 -48 3 -73 65 -50 139 -30 133 36 -2 20 -9
38 -16 41 -9 3 -11 -3 -6 -22 8 -31 -10 -56 -40 -56 -19 0 -21 5 -18 45 4 39
1 45 -15 45 -10 0 -29 -7 -41 -16z m38 -39 c0 -28 -12 -32 -30 -10 -14 16 -6
35 16 35 8 0 14 -10 14 -25z"/>
<path d="M616 1375 c-7 -20 3 -65 15 -65 11 0 11 51 0 68 -7 11 -10 10 -15 -3z"/>
<path d="M786 1372 c-3 -9 -1 -33 4 -52 6 -19 10 -50 10 -67 0 -18 5 -33 10
-33 6 0 10 6 10 14 0 8 3 21 6 29 3 8 -1 21 -9 28 -11 10 -12 21 -6 38 10 25
3 61 -11 61 -5 0 -11 -8 -14 -18z"/>
<path d="M1930 1350 c0 -29 4 -40 15 -40 16 0 20 35 9 64 -11 29 -24 16 -24
-24z"/>
<path d="M1410 1356 c0 -14 5 -28 10 -31 6 -3 10 0 10 9 0 8 3 21 6 30 4 11 1
16 -10 16 -10 0 -16 -9 -16 -24z"/>
<path d="M1602 1340 c-3 -44 12 -54 22 -16 6 25 -1 56 -13 56 -4 0 -8 -18 -9
-40z"/>
<path d="M2176 1365 c-8 -21 4 -76 15 -69 12 7 12 71 0 78 -5 3 -12 -1 -15 -9z"/>
<path d="M736 1355 c-11 -30 -7 -65 9 -65 17 0 21 46 6 68 -7 11 -10 10 -15
-3z"/>
<path d="M1237 1335 c-19 -39 -22 -85 -7 -85 6 0 10 7 10 15 0 9 7 18 15 22
11 4 15 17 13 44 -1 22 -5 39 -8 39 -4 0 -14 -16 -23 -35z"/>
<path d="M1135 1341 c-3 -10 -2 -26 1 -36 4 -9 2 -20 -4 -24 -14 -9 -25 -158
-13 -166 10 -6 25 50 17 63 -3 5 -1 22 4 38 l8 29 1 -27 c1 -16 5 -28 10 -28
14 0 23 49 12 68 -8 13 -10 14 -11 3 0 -12 -3 -12 -12 -3 -9 9 -10 15 -2 20 6
4 13 18 17 30 10 43 -15 73 -28 33z"/>
<path d="M2030 1320 c0 -22 4 -40 9 -40 12 0 22 45 15 64 -11 29 -24 16 -24
-24z"/>
<path d="M827 1336 c-7 -18 2 -56 13 -56 13 0 21 35 14 54 -8 20 -20 21 -27 2z"/>
<path d="M1447 1330 c-6 -24 2 -60 14 -60 12 0 12 67 0 74 -5 3 -11 -3 -14
-14z"/>
<path d="M203 1321 c-47 -30 -45 -74 5 -100 42 -22 122 20 122 64 0 48 -74 69
-127 36z m103 -26 c9 -22 -12 -42 -50 -49 -62 -12 -88 17 -44 48 29 21 87 21
94 1z"/>
<path d="M900 1305 c0 -19 4 -35 9 -35 13 0 23 34 15 54 -11 28 -24 18 -24
-19z"/>
<path d="M947 1334 c-11 -11 -8 -72 3 -79 6 -3 10 3 10 14 0 12 5 21 10 21 6
0 10 -9 10 -20 0 -11 5 -20 10 -20 16 0 12 -40 -6 -57 -8 -9 -13 -22 -10 -30
3 -8 6 -21 6 -29 0 -8 5 -14 11 -14 7 0 10 14 7 36 -3 29 -1 38 14 42 18 4 24
35 12 67 -6 13 -9 14 -16 3 -6 -8 -7 -5 -3 12 7 32 -11 62 -24 41 -7 -11 -10
-10 -18 3 -5 9 -12 13 -16 10z"/>
<path d="M1486 1324 c-8 -20 3 -64 15 -64 6 0 9 18 7 40 -2 41 -11 52 -22 24z"/>
<path d="M1837 1334 c-10 -11 -9 -72 2 -78 13 -8 24 50 14 69 -5 9 -12 12 -16
9z"/>
<path d="M1885 1321 c-3 -11 1 -36 9 -55 16 -39 4 -50 -20 -19 -11 17 -13 16
-19 -7 -3 -14 -2 -37 4 -50 l10 -25 7 24 7 25 9 -25 c16 -43 28 1 21 79 -6 71
-16 90 -28 53z"/>
<path d="M1529 1325 c-7 -41 -6 -75 2 -75 5 0 9 7 9 15 0 8 5 15 10 15 6 0 10
-7 10 -15 0 -24 20 -17 21 8 3 50 -7 70 -22 47 -8 -13 -10 -13 -19 0 -5 8 -10
11 -11 5z"/>
<path d="M1726 1322 c-7 -12 5 -52 15 -52 5 0 9 7 9 16 0 8 5 12 10 9 6 -3 10
-15 10 -27 0 -14 5 -18 15 -14 8 3 14 2 14 -2 -3 -21 2 -42 11 -42 6 0 10 14
10 30 0 21 -5 30 -16 30 -11 0 -15 6 -11 20 4 15 0 20 -14 20 -10 0 -19 5 -19
10 0 12 -27 13 -34 2z"/>
<path d="M2257 1307 c-6 -17 3 -67 13 -67 10 0 19 50 13 67 -3 7 -9 13 -13 13
-4 0 -10 -6 -13 -13z"/>
<path d="M2426 1304 c-7 -18 3 -64 14 -64 10 0 20 50 13 67 -7 18 -20 16 -27
-3z"/>
<path d="M1417 1304 c-10 -10 -9 -74 2 -74 5 0 11 9 14 21 6 24 -5 63 -16 53z"/>
<path d="M2337 1291 c-6 -25 3 -71 14 -71 5 0 8 20 7 45 -1 46 -12 59 -21 26z"/>
<path d="M626 1285 c-9 -24 -7 -65 3 -65 13 0 23 49 13 66 -8 15 -10 14 -16
-1z"/>
<path d="M865 1290 c-9 -15 3 -60 15 -60 13 0 13 57 1 65 -5 3 -13 0 -16 -5z"/>
<path d="M1994 1275 c-7 -29 1 -55 16 -55 6 0 10 17 8 40 -2 45 -14 53 -24 15z"/>
<path d="M2112 1260 c-2 -23 2 -40 8 -40 5 0 10 7 10 15 0 8 5 15 10 15 15 0
12 -30 -6 -47 -10 -10 -13 -24 -9 -37 4 -12 9 -45 12 -73 3 -29 9 -53 13 -53
13 0 20 61 10 80 -13 24 -13 87 0 92 16 5 17 70 1 76 -8 3 -11 0 -7 -7 4 -6 2
-11 -4 -11 -6 0 -13 7 -16 15 -11 27 -20 16 -22 -25z"/>
<path d="M1936 1274 c-7 -18 3 -64 14 -64 4 0 11 11 14 24 6 26 -1 56 -14 56
-4 0 -11 -7 -14 -16z"/>
<path d="M2660 1277 c0 -7 6 -19 13 -26 10 -11 10 -13 0 -7 -9 5 -13 -1 -13
-20 0 -21 3 -24 13 -16 15 13 81 -3 108 -25 14 -12 17 -11 23 9 10 39 8 52 -7
40 -8 -7 -26 -8 -49 -3 -49 11 -60 20 -53 42 5 15 1 19 -14 19 -12 0 -21 -6
-21 -13z"/>
<path d="M716 1264 c-8 -20 3 -64 16 -64 6 0 8 7 4 15 -3 8 -1 15 4 15 6 0 10
-9 10 -20 0 -11 4 -20 10 -20 5 0 7 -6 4 -13 -2 -7 0 -24 5 -38 10 -25 12 -20
16 34 1 15 -2 27 -6 27 -5 0 -9 15 -9 34 0 19 -4 38 -10 41 -5 3 -10 -1 -10
-10 0 -9 -5 -13 -10 -10 -6 4 -8 11 -5 16 4 5 2 9 -3 9 -6 0 -13 -7 -16 -16z"/>
<path d="M1045 1268 c-9 -22 -2 -68 10 -71 14 -3 18 49 6 70 -9 17 -10 17 -16
1z"/>
<path d="M1587 1260 c-6 -23 2 -60 13 -60 11 0 19 37 13 60 -3 11 -9 20 -13
20 -4 0 -10 -9 -13 -20z"/>
<path d="M656 1255 c-3 -9 -6 -25 -6 -36 0 -10 -4 -19 -9 -19 -5 0 -12 -7 -15
-16 -7 -18 3 -64 14 -64 13 0 19 54 7 62 -8 5 -6 8 4 8 20 0 33 44 21 66 -8
15 -10 14 -16 -1z"/>
<path d="M1660 1238 c0 -15 5 -28 10 -28 6 0 10 7 10 16 0 8 5 12 10 9 6 -3
10 -15 10 -26 0 -30 17 -22 22 11 4 24 1 30 -14 30 -10 0 -18 4 -18 8 0 5 -7
9 -15 9 -10 0 -15 -10 -15 -29z"/>
<path d="M836 1242 c-9 -26 3 -72 17 -69 6 1 13 -8 15 -20 4 -25 22 -32 22 -9
0 8 6 21 13 28 19 19 28 48 22 70 -9 26 -25 12 -25 -23 0 -22 -5 -29 -20 -29
-14 0 -20 7 -20 23 0 12 -4 28 -9 36 -7 11 -10 9 -15 -7z"/>
<path d="M1376 1244 c-7 -19 3 -64 14 -64 11 0 17 29 12 58 -5 26 -17 29 -26
6z"/>
<path d="M1446 1244 c-7 -19 3 -64 15 -64 5 0 9 18 9 40 0 40 -13 53 -24 24z"/>
<path d="M1738 1208 c-3 -99 -2 -108 7 -106 6 2 10 26 10 53 1 28 4 55 8 62 8
13 -1 43 -14 43 -5 0 -10 -24 -11 -52z"/>
<path d="M2036 1244 c-7 -18 3 -64 14 -64 11 0 19 37 13 60 -6 24 -19 26 -27
4z"/>
<path d="M2304 1238 c3 -13 6 -27 6 -31 0 -5 5 -5 10 -2 17 10 12 55 -6 55
-12 0 -15 -6 -10 -22z"/>
<path d="M1488 1228 c-5 -30 1 -58 13 -58 5 0 9 18 9 40 0 43 -15 55 -22 18z"/>
<path d="M2182 1210 c-3 -44 12 -54 22 -16 6 25 -1 56 -13 56 -4 0 -8 -18 -9
-40z"/>
<path d="M1191 1165 c0 -76 12 -100 24 -46 3 17 2 38 -4 48 -6 12 -6 25 0 34
13 21 11 39 -5 39 -11 0 -15 -17 -15 -75z"/>
<path d="M1532 1204 c-2 -20 -10 -43 -18 -52 -9 -9 -13 -24 -10 -36 3 -12 6
-24 6 -28 0 -5 5 -8 10 -8 6 0 10 18 10 40 0 22 4 40 9 40 11 0 21 49 14 67
-9 24 -19 13 -21 -23z"/>
<path d="M1626 1225 c-3 -9 -6 -27 -6 -40 0 -13 -6 -25 -12 -28 -7 -3 -3 -4 9
-4 15 1 23 9 27 30 7 35 -7 69 -18 42z"/>
<path d="M686 1215 c-9 -24 -7 -65 3 -65 13 0 23 49 13 66 -8 15 -10 14 -16
-1z"/>
<path d="M942 1204 c-1 -14 -9 -32 -17 -40 -8 -9 -15 -21 -14 -27 1 -22 15
-48 24 -47 6 0 11 -8 13 -20 2 -11 8 -20 14 -20 5 0 7 -7 4 -16 -7 -19 3 -64
15 -64 12 0 11 67 -1 75 -5 3 -10 24 -10 46 0 21 -5 39 -11 39 -5 0 -7 -4 -4
-10 3 -5 2 -10 -3 -10 -5 0 -12 11 -14 25 -3 13 -1 22 3 19 13 -7 31 35 24 56
-9 28 -20 25 -23 -6z"/>
<path d="M1080 1189 c0 -24 4 -38 10 -34 6 3 10 22 10 41 0 19 -4 34 -10 34
-5 0 -10 -18 -10 -41z"/>
<path d="M1235 1208 c-4 -16 -4 -36 0 -45 6 -16 8 -16 18 5 7 15 7 29 0 45
-11 22 -11 22 -18 -5z"/>
<path d="M2266 1215 c-7 -20 4 -75 15 -75 5 0 9 20 9 45 0 44 -12 60 -24 30z"/>
<path d="M320 1212 c0 -12 -96 -33 -115 -26 -13 5 -15 1 -9 -22 9 -38 12 -40
27 -22 6 8 32 20 56 27 36 10 45 10 52 0 4 -7 4 -18 -1 -25 -14 -16 -85 -35
-104 -28 -20 8 -20 7 -1 -47 27 -78 24 -74 38 -57 6 8 32 23 56 32 35 13 46
14 52 5 4 -7 5 -17 3 -21 -10 -16 -86 -49 -100 -44 -18 7 -18 -15 1 -40 12
-16 14 -16 15 -3 0 10 19 25 48 37 65 28 80 46 58 70 -9 10 -14 21 -11 24 3 3
-1 11 -9 18 -13 10 -18 9 -31 -3 -19 -20 -81 -40 -95 -32 -20 13 -4 29 45 45
54 18 72 38 60 66 -9 22 -12 30 -14 44 -1 12 -21 14 -21 2z"/>
<path d="M1777 1214 c-10 -10 -9 -72 2 -78 12 -8 23 52 13 70 -5 8 -11 11 -15
8z"/>
<path d="M1966 1204 c-9 -25 4 -66 20 -60 9 3 14 -2 14 -14 0 -11 5 -20 10
-20 6 0 10 6 10 14 0 8 3 22 7 32 5 14 2 16 -15 12 -19 -5 -22 -2 -22 23 0 31
-14 39 -24 13z"/>
<path d="M2080 1180 c0 -22 4 -40 9 -40 12 0 22 45 15 64 -11 29 -24 16 -24
-24z"/>
<path d="M807 1194 c-10 -10 -9 -72 2 -78 12 -8 23 52 13 70 -5 8 -11 11 -15
8z"/>
<path d="M1294 1184 c3 -9 6 -22 6 -30 0 -9 5 -12 10 -9 17 10 12 55 -6 55
-11 0 -14 -5 -10 -16z"/>
<path d="M1656 1185 c-7 -20 3 -65 15 -65 11 0 11 51 0 68 -7 11 -10 10 -15
-3z"/>
<path d="M2356 1185 c-7 -20 4 -75 15 -75 5 0 9 20 9 45 0 44 -12 60 -24 30z"/>
<path d="M1414 1174 c3 -9 6 -22 6 -30 0 -8 5 -14 10 -14 6 0 10 14 10 30 0
21 -5 30 -16 30 -11 0 -14 -5 -10 -16z"/>
<path d="M1562 1159 c-1 -17 -7 -39 -12 -49 -6 -10 -10 -30 -10 -44 0 -20 5
-26 23 -26 12 0 17 4 12 8 -11 8 -14 62 -4 62 11 0 20 47 13 64 -10 25 -20 19
-22 -15z"/>
<path d="M1806 1175 c-5 -14 -4 -24 10 -62 4 -10 6 -33 5 -50 -2 -18 2 -33 7
-33 16 0 23 49 11 71 -6 12 -8 30 -6 41 10 37 -14 66 -27 33z"/>
<path d="M1922 1150 c-3 -44 12 -54 22 -16 6 25 -1 56 -13 56 -4 0 -8 -18 -9
-40z"/>
<path d="M2312 1154 c-2 -20 -9 -43 -17 -51 -18 -17 -18 -15 -4 -50 l12 -28 7
25 8 25 1 -28 c1 -18 6 -27 14 -24 13 4 13 36 -1 155 -4 27 -18 10 -20 -24z"/>
<path d="M2648 1179 c-40 -23 -8 -83 52 -99 46 -12 75 -2 85 30 8 24 -2 60
-16 60 -6 0 -7 -9 -4 -20 9 -27 -11 -50 -41 -50 -26 0 -30 14 -15 53 8 20 6
27 -5 31 -22 8 -36 7 -56 -5z m40 -36 c-2 -10 -10 -18 -18 -18 -8 0 -16 8 -18
18 -2 12 3 17 18 17 15 0 20 -5 18 -17z"/>
<path d="M1016 1164 c-7 -19 3 -64 15 -64 5 0 9 11 9 25 0 14 4 25 8 25 4 0 6
-16 4 -35 -5 -40 13 -48 22 -11 7 30 -2 56 -20 56 -8 0 -14 5 -14 10 0 16 -17
12 -24 -6z"/>
<path d="M1156 1165 c-9 -24 -7 -65 3 -65 13 0 23 49 13 66 -8 15 -10 14 -16
-1z"/>
<path d="M2568 1173 c-22 -5 -23 -19 -3 -26 7 -3 24 3 37 13 22 18 22 19 3 19
-11 -1 -28 -3 -37 -6z"/>
<path d="M714 1154 c3 -9 6 -22 6 -30 0 -8 6 -14 13 -14 11 0 12 -12 6 -55 -7
-56 1 -119 14 -98 8 12 12 51 7 68 -1 6 -2 20 -1 33 1 29 21 19 22 -11 1 -17
4 -14 12 11 7 24 7 36 -1 44 -9 9 -12 9 -12 -2 0 -9 -7 -6 -21 8 -13 15 -18
29 -14 42 5 16 2 20 -15 20 -16 0 -20 -4 -16 -16z"/>
<path d="M1260 1146 c0 -14 4 -27 9 -30 5 -3 9 -22 9 -42 0 -54 15 -62 27 -13
4 18 1 31 -10 42 -10 11 -13 25 -9 42 5 19 2 25 -10 25 -10 0 -16 -9 -16 -24z"/>
<path d="M1462 1130 c-2 -23 2 -40 8 -40 6 0 10 -10 9 -22 -3 -37 0 -58 10
-58 16 0 19 61 4 76 -8 8 -12 22 -8 33 6 19 -3 51 -14 51 -4 0 -8 -18 -9 -40z"/>
<path d="M1877 1164 c-10 -11 -9 -74 2 -74 13 0 23 48 13 66 -4 8 -11 11 -15
8z"/>
<path d="M1694 1144 c3 -9 6 -22 6 -30 0 -8 5 -14 10 -14 6 0 10 14 10 30 0
21 -5 30 -16 30 -11 0 -14 -5 -10 -16z"/>
<path d="M2046 1145 c-11 -30 -7 -65 9 -65 17 0 21 46 6 68 -7 11 -10 10 -15
-3z"/>
<path d="M2186 1144 c-7 -18 3 -64 14 -64 9 0 18 51 12 68 -5 17 -19 15 -26
-4z"/>
<path d="M2230 1115 c0 -25 4 -45 9 -45 11 0 22 55 15 75 -12 30 -24 14 -24
-30z"/>
<path d="M837 1136 c-9 -22 4 -146 14 -146 9 0 6 146 -3 156 -3 2 -8 -2 -11
-10z"/>
<path d="M666 1124 c-7 -18 3 -64 14 -64 4 0 11 11 14 24 6 26 -1 56 -14 56
-4 0 -11 -7 -14 -16z"/>
<path d="M1595 1113 c3 -16 13 -32 21 -36 8 -4 14 -17 14 -27 0 -11 5 -20 10
-20 6 0 10 14 10 30 0 20 -5 30 -15 30 -9 0 -15 9 -15 25 0 16 -6 25 -16 25
-13 0 -15 -6 -9 -27z"/>
<path d="M1956 1114 c-8 -22 3 -61 20 -68 8 -3 14 -12 14 -21 0 -24 17 -18 24
9 7 27 -1 56 -16 56 -5 0 -7 -4 -3 -9 3 -5 0 -13 -6 -17 -8 -5 -10 0 -6 18 8
31 -16 59 -27 32z"/>
<path d="M2096 1115 c-8 -22 -8 -60 1 -69 4 -4 8 -23 10 -44 5 -78 11 -123 15
-128 3 -2 13 -1 22 2 11 4 14 9 7 13 -6 4 -13 34 -17 67 -3 32 -8 66 -11 74
-3 8 -5 29 -4 45 2 38 -13 65 -23 40z"/>
<path d="M870 1088 c0 -49 16 -68 22 -27 6 37 1 59 -13 59 -5 0 -9 -15 -9 -32z"/>
<path d="M997 1114 c-11 -11 -8 -74 3 -74 14 0 23 46 13 65 -5 8 -12 12 -16 9z"/>
<path d="M1227 1100 c-6 -23 2 -60 13 -60 11 0 21 46 14 64 -8 22 -21 20 -27
-4z"/>
<path d="M1776 1104 c-8 -20 3 -64 15 -64 6 0 9 18 7 40 -2 41 -11 52 -22 24z"/>
<path d="M1086 1094 c-8 -20 3 -64 15 -64 6 0 9 18 7 40 -2 41 -11 52 -22 24z"/>
<path d="M2540 1096 c0 -17 27 -29 35 -16 4 6 3 15 0 20 -9 15 -35 12 -35 -4z"/>
<path d="M1122 1056 c-2 -45 12 -64 21 -28 4 16 5 16 6 0 2 -26 18 -22 25 6 7
27 -1 56 -16 56 -5 0 -6 -4 -3 -10 10 -17 -7 -11 -20 6 -10 14 -12 9 -13 -30z"/>
<path d="M1666 1084 c-3 -8 -6 -27 -6 -40 0 -13 -5 -24 -12 -24 -6 0 -9 -2 -6
-5 9 -9 38 7 38 21 0 8 5 14 10 14 6 0 10 -9 10 -20 0 -11 5 -20 10 -20 6 0
10 17 8 40 -1 22 -6 40 -10 40 -4 0 -8 -6 -8 -12 -1 -8 -6 -6 -14 5 -12 16
-14 16 -20 1z"/>
<path d="M1896 1084 c-7 -18 3 -64 14 -64 4 0 11 11 14 24 6 26 -1 56 -14 56
-4 0 -11 -7 -14 -16z"/>
<path d="M697 1060 c-6 -23 2 -60 13 -60 11 0 21 46 14 64 -8 22 -21 20 -27
-4z"/>
<path d="M907 1067 c-7 -19 4 -67 15 -67 6 0 7 -7 4 -16 -8 -20 3 -64 15 -64
6 0 9 18 7 40 -1 22 -6 40 -11 40 -5 0 -7 12 -4 27 5 29 0 53 -13 53 -4 0 -10
-6 -13 -13z"/>
<path d="M1416 1064 c-7 -18 3 -64 14 -64 4 0 11 11 14 24 6 26 -1 56 -14 56
-4 0 -11 -7 -14 -16z"/>
<path d="M2596 1049 c-5 -27 -9 -30 -31 -25 -27 7 -35 -8 -10 -18 8 -3 15 -12
15 -20 0 -9 6 -13 14 -10 8 3 37 -6 66 -21 41 -21 55 -24 66 -14 8 6 14 17 14
24 0 6 7 26 16 44 9 18 13 35 9 39 -4 4 -10 2 -12 -5 -3 -8 -23 -4 -65 13 -34
13 -65 24 -69 24 -3 0 -9 -14 -13 -31z m91 -24 c39 -15 41 -18 30 -38 -7 -12
-13 -23 -14 -25 -2 -5 -103 39 -103 45 0 15 24 44 33 40 7 -3 31 -12 54 -22z"/>
<path d="M1050 1060 c0 -5 -8 -10 -17 -10 -15 0 -16 -2 -3 -10 13 -8 12 -10
-4 -10 -14 0 -17 -5 -13 -21 3 -12 0 -28 -9 -36 -16 -17 -9 -63 13 -76 7 -4
13 -17 13 -27 0 -11 5 -20 10 -20 6 0 10 6 10 14 0 8 3 21 6 30 4 11 0 16 -14
16 -14 0 -21 8 -24 30 -3 20 0 30 9 30 7 0 13 7 13 15 0 8 6 15 14 15 18 0 33
43 17 48 -6 2 -9 8 -5 13 3 5 0 9 -5 9 -6 0 -11 -4 -11 -10z"/>
<path d="M1192 1030 c-3 -44 12 -54 22 -16 6 25 -1 56 -13 56 -4 0 -8 -18 -9
-40z"/>
<path d="M1597 1056 c-3 -8 -2 -27 2 -43 4 -15 6 -45 3 -65 -3 -24 0 -38 7
-38 6 0 11 -17 11 -40 0 -44 14 -54 24 -16 6 26 -1 56 -14 56 -5 0 -9 15 -9
33 0 17 0 48 -1 67 0 42 -14 70 -23 46z"/>
<path d="M2046 1054 c-7 -18 3 -64 14 -64 4 0 11 11 14 24 6 26 -1 56 -14 56
-4 0 -11 -7 -14 -16z"/>
<path d="M2176 1054 c-7 -19 3 -64 15 -64 12 0 12 67 0 74 -5 3 -12 -1 -15
-10z"/>
<path d="M1856 1044 c-7 -18 3 -64 14 -64 4 0 11 11 14 24 6 26 -1 56 -14 56
-4 0 -11 -7 -14 -16z"/>
<path d="M2246 1044 c-9 -23 4 -64 20 -64 8 0 14 -4 14 -10 0 -5 5 -10 10 -10
16 0 12 39 -7 71 -20 33 -28 36 -37 13z"/>
<path d="M1516 1030 c-17 -83 -14 -150 6 -150 7 0 8 16 5 41 -3 22 -1 54 5 69
6 19 6 35 0 47 -9 16 -11 15 -16 -7z"/>
<path d="M1734 1034 c3 -9 6 -22 6 -30 0 -8 7 -14 15 -14 8 0 15 -9 15 -20 0
-11 5 -20 10 -20 6 0 10 6 10 14 0 8 3 21 6 30 4 12 0 16 -15 16 -12 0 -21 4
-21 10 0 5 8 6 18 3 16 -6 16 -6 0 10 -22 22 -52 23 -44 1z"/>
<path d="M800 1016 c0 -24 26 -54 37 -42 3 3 1 6 -7 6 -9 0 -11 9 -6 30 4 22
2 30 -9 30 -9 0 -15 -9 -15 -24z"/>
<path d="M1935 1030 c3 -5 1 -10 -5 -10 -16 0 -3 -53 16 -63 8 -4 14 -17 14
-27 0 -11 5 -20 10 -20 6 0 10 12 10 26 0 14 4 23 10 19 6 -3 10 -15 10 -26 0
-10 4 -19 9 -19 15 0 24 57 12 77 -9 17 -10 17 -16 1 -4 -11 -18 -18 -32 -18
-19 0 -23 4 -18 19 6 21 -3 51 -17 51 -5 0 -6 -4 -3 -10z"/>
<path d="M1225 1011 c-7 -24 2 -61 15 -61 5 0 7 7 4 15 -4 8 -1 15 5 15 6 0
11 -7 11 -15 0 -8 5 -15 10 -15 6 0 8 -10 4 -24 -3 -14 -2 -32 4 -42 17 -30
25 32 8 65 -9 16 -13 31 -10 34 3 3 3 15 -1 28 -6 17 -9 19 -16 8 -8 -12 -10
-12 -18 0 -7 11 -10 9 -16 -8z"/>
<path d="M1386 1015 c-9 -24 -7 -65 3 -65 13 0 23 49 13 66 -8 15 -10 14 -16
-1z"/>
<path d="M1560 1006 c0 -13 -6 -26 -12 -29 -7 -3 -3 -4 10 -4 12 1 22 7 22 13
0 7 3 19 6 28 4 11 1 16 -10 16 -10 0 -16 -9 -16 -24z"/>
<path d="M874 998 c3 -13 6 -27 6 -31 0 -5 5 -5 10 -2 17 10 12 55 -6 55 -12
0 -15 -6 -10 -22z"/>
<path d="M1095 1001 c-3 -11 -4 -25 0 -30 3 -5 1 -12 -5 -16 -5 -3 -10 3 -10
14 0 25 -15 28 -24 5 -8 -20 3 -64 16 -64 5 0 7 -9 3 -19 -7 -24 4 -73 16 -65
12 7 11 71 -1 79 -17 10 -11 35 8 35 12 0 18 -9 19 -31 4 -51 15 -54 27 -7 4
17 1 32 -9 42 -8 8 -15 23 -15 33 0 10 -4 24 -9 32 -7 11 -10 9 -16 -8z"/>
<path d="M1296 1004 c-8 -20 3 -64 15 -64 6 0 9 18 7 40 -2 41 -11 52 -22 24z"/>
<path d="M1817 1014 c-4 -4 -7 -22 -7 -41 0 -18 -4 -33 -8 -33 -4 0 -9 -18
-10 -40 -2 -22 1 -40 7 -40 11 0 24 47 16 60 -4 6 -2 10 3 10 5 0 12 12 15 27
6 30 -5 68 -16 57z"/>
<path d="M1457 996 c-8 -20 1 -66 13 -66 14 0 18 49 5 66 -11 16 -12 15 -18 0z"/>
<path d="M2212 970 c-2 -23 2 -40 8 -40 5 0 10 -7 10 -15 0 -25 17 -17 24 10
6 24 -19 85 -34 85 -3 0 -7 -18 -8 -40z"/>
<path d="M1156 983 c-4 -11 -3 -31 2 -43 l9 -24 7 27 c3 15 2 35 -3 44 -8 14
-9 14 -15 -4z"/>
<path d="M1636 973 c11 -46 18 -46 29 0 6 23 4 27 -14 27 -18 0 -20 -4 -15
-27z"/>
<path d="M1696 985 c-3 -8 0 -28 6 -43 10 -24 12 -25 16 -7 7 36 18 36 14 0
-5 -40 13 -48 22 -11 7 30 -2 56 -20 56 -8 0 -14 5 -14 10 0 15 -17 12 -24 -5z"/>
<path d="M776 975 c-11 -30 -7 -65 9 -65 17 0 21 46 6 68 -7 11 -10 10 -15 -3z"/>
<path d="M1419 973 c-1 -10 -2 -25 -3 -33 -1 -8 -6 -24 -13 -35 -12 -22 -6
-75 8 -75 9 0 14 28 11 63 -1 9 2 17 7 17 12 0 20 36 14 60 -7 25 -22 26 -24
3z"/>
<path d="M2144 974 c3 -9 6 -22 6 -30 0 -8 5 -14 10 -14 6 0 10 14 10 30 0 21
-5 30 -16 30 -11 0 -14 -5 -10 -16z"/>
<path d="M1187 961 c-6 -25 2 -61 14 -61 11 0 11 51 0 68 -6 10 -10 9 -14 -7z"/>
<path d="M1330 951 c0 -17 -4 -33 -10 -36 -5 -3 -10 -21 -10 -40 0 -19 5 -37
10 -40 10 -6 15 21 11 59 -1 11 2 22 7 25 5 3 12 18 16 34 5 20 3 27 -9 27
-10 0 -15 -10 -15 -29z"/>
<path d="M2064 943 c1 -27 6 -39 18 -41 11 -2 16 2 14 10 -2 7 -7 25 -10 41
-9 40 -23 33 -22 -10z"/>
<path d="M339 947 c-42 -28 -50 -68 -18 -91 12 -8 27 -12 32 -9 5 3 2 10 -7
15 -22 12 -20 41 3 62 18 17 19 16 25 -2 12 -37 34 -47 56 -27 36 33 19 75
-31 75 -14 0 -41 -10 -60 -23z m89 -14 c-5 -25 -25 -27 -38 -4 -10 19 -8 21
15 21 19 0 26 -5 23 -17z"/>
<path d="M854 961 c4 -5 -3 -7 -14 -4 -17 5 -20 0 -20 -26 0 -36 16 -42 23 -8
4 19 4 18 6 -5 0 -16 5 -28 9 -28 4 0 8 -16 8 -35 0 -35 9 -53 21 -42 3 4 6
20 6 37 0 16 4 30 8 30 10 0 18 37 12 60 -7 28 -23 14 -23 -21 0 -16 -4 -29
-10 -29 -5 0 -10 18 -10 40 0 22 -5 40 -11 40 -5 0 -8 -4 -5 -9z"/>
<path d="M1896 953 c-3 -10 -2 -31 3 -48 l8 -30 12 29 c12 29 7 66 -9 66 -5 0
-11 -8 -14 -17z"/>
<path d="M1540 930 c0 -16 5 -30 10 -30 6 0 10 6 10 14 0 8 3 21 6 30 4 11 1
16 -10 16 -11 0 -16 -9 -16 -30z"/>
<path d="M1845 940 c-3 -11 -4 -24 -1 -29 4 -5 1 -11 -6 -13 -12 -4 -16 -63
-5 -75 10 -9 16 0 19 28 2 13 6 26 9 29 12 10 19 60 9 60 -6 0 -8 5 -5 10 3 6
2 10 -4 10 -5 0 -12 -9 -16 -20z"/>
<path d="M1357 929 c-3 -11 -2 -32 2 -47 4 -15 7 -42 5 -60 -1 -17 2 -34 6
-37 12 -7 22 43 12 63 -5 9 -7 33 -5 54 4 39 -11 61 -20 27z"/>
<path d="M1666 932 c-4 -12 -4 -26 -1 -32 3 -6 1 -25 -6 -44 -7 -18 -9 -42 -5
-52 7 -18 8 -18 18 -1 5 10 8 28 5 38 -3 11 -1 33 5 49 6 19 6 35 0 46 -9 16
-10 15 -16 -4z"/>
<path d="M2540 924 c0 -14 -4 -23 -10 -19 -5 3 -10 -3 -10 -14 0 -12 7 -21 15
-21 20 0 91 -45 98 -62 4 -10 8 -10 16 2 11 16 15 48 5 37 -6 -6 -57 17 -93
42 -12 8 -12 12 -2 25 12 14 16 14 43 0 16 -8 39 -25 50 -36 20 -20 22 -20 35
-3 16 23 17 38 1 32 -7 -2 -34 6 -60 19 -63 32 -88 31 -88 -2z"/>
<path d="M960 910 c0 -16 5 -30 10 -30 6 0 10 14 10 30 0 17 -4 30 -10 30 -5
0 -10 -13 -10 -30z"/>
<path d="M1576 932 c-4 -6 -7 -28 -7 -49 0 -21 -1 -53 -1 -72 0 -22 5 -37 17
-44 10 -5 13 -12 7 -16 -12 -7 -4 -61 9 -61 5 0 9 9 9 20 0 11 6 23 14 26 17
7 28 46 20 69 -9 22 -24 1 -24 -33 0 -20 -2 -21 -14 -10 -17 18 -25 75 -15
111 9 31 -3 78 -15 59z"/>
<path d="M2175 908 c-4 -15 -4 -31 -1 -36 3 -6 -3 -8 -14 -5 -17 5 -20 0 -20
-26 0 -17 5 -31 10 -31 6 0 10 9 10 20 0 14 6 20 18 18 20 -4 29 41 13 69 -8
16 -10 15 -16 -9z"/>
<path d="M1216 883 c-10 -61 -12 -113 -4 -113 11 0 21 48 14 67 -4 9 -3 19 2
22 5 3 12 18 16 34 5 20 3 27 -8 27 -8 0 -16 -15 -20 -37z"/>
<path d="M1462 884 c-2 -20 -10 -43 -18 -52 -10 -10 -13 -24 -9 -41 12 -48 29
-40 29 14 0 19 3 35 7 35 10 0 20 46 13 64 -10 27 -20 18 -22 -20z"/>
<path d="M2037 914 c-10 -11 -9 -72 2 -78 13 -8 24 50 14 69 -5 9 -12 12 -16
9z"/>
<path d="M1697 897 c-7 -18 3 -67 14 -67 5 0 9 18 9 40 0 39 -13 54 -23 27z"/>
<path d="M916 885 c-9 -25 -7 -75 3 -75 14 0 24 57 13 76 -8 15 -10 15 -16 -1z"/>
<path d="M1927 894 c-10 -10 -9 -74 1 -74 4 0 6 -16 4 -35 -4 -31 -2 -35 19
-35 13 0 20 4 14 8 -5 4 -11 34 -13 67 -3 59 -12 82 -25 69z"/>
<path d="M1975 878 c-7 -31 -1 -61 13 -66 15 -5 16 -32 2 -32 -5 0 -10 -9 -10
-20 0 -11 -7 -20 -15 -20 -10 0 -15 -10 -15 -30 0 -38 20 -40 21 -2 1 16 3 20
6 10 2 -10 8 -18 13 -18 11 0 22 48 14 62 -4 5 -2 13 3 17 6 3 13 18 17 34 5
22 3 27 -11 27 -15 0 -16 2 -3 10 10 6 11 10 3 10 -7 0 -13 6 -13 14 0 25 -19
28 -25 4z"/>
<path d="M992 873 c-11 -20 -6 -63 8 -63 13 0 21 50 11 67 -8 14 -10 14 -19
-4z"/>
<path d="M1150 866 c0 -14 5 -28 10 -31 6 -3 10 -3 10 2 0 4 3 18 6 31 5 16 2
22 -10 22 -10 0 -16 -9 -16 -24z"/>
<path d="M1247 871 c-6 -25 2 -61 14 -61 11 0 11 51 0 68 -6 10 -10 9 -14 -7z"/>
<path d="M1536 873 c-4 -11 -3 -31 2 -43 l9 -24 7 27 c3 15 2 35 -3 44 -8 14
-9 14 -15 -4z"/>
<path d="M2075 860 c4 -16 3 -30 -2 -30 -5 0 -10 -18 -11 -40 -2 -22 1 -40 7
-40 12 0 23 44 15 63 -3 8 -1 18 5 22 17 10 13 55 -5 55 -12 0 -14 -7 -9 -30z"/>
<path d="M399 857 c-42 -28 -53 -79 -20 -96 11 -6 22 -7 25 -2 3 5 -1 11 -9
15 -8 3 -15 12 -15 20 0 19 57 66 80 66 25 0 34 -16 13 -24 -13 -5 -14 -9 -4
-19 19 -18 44 19 30 44 -13 26 -58 24 -100 -4z"/>
<path d="M1496 855 c-3 -9 -3 -27 0 -41 4 -14 2 -24 -4 -24 -16 0 -24 -34 -14
-60 l9 -24 7 28 c4 15 4 31 1 35 -2 5 2 14 10 21 16 14 19 47 6 68 -7 11 -10
10 -15 -3z"/>
<path d="M1736 843 c7 -30 12 -39 18 -32 2 2 6 16 10 32 5 23 3 27 -14 27 -17
0 -19 -4 -14 -27z"/>
<path d="M1287 839 c-9 -34 -8 -59 2 -59 13 0 23 49 13 67 -8 13 -10 11 -15
-8z"/>
<path d="M2106 844 c-7 -19 3 -64 15 -64 12 0 12 67 0 74 -5 3 -12 -1 -15 -10z"/>
<path d="M1777 836 c-6 -16 2 -56 12 -56 10 0 7 -54 -3 -62 -12 -8 -16 -78 -4
-78 7 0 12 25 11 58 -1 6 6 12 14 12 12 0 14 8 9 35 -3 19 -9 51 -12 70 -6 36
-18 45 -27 21z"/>
<path d="M1865 823 c4 -52 7 -58 15 -30 9 29 4 57 -10 57 -4 0 -6 -12 -5 -27z"/>
<path d="M2483 843 c-7 -2 -13 -17 -13 -33 0 -34 59 -90 95 -90 31 0 56 35 46
64 -16 42 -88 76 -128 59z m68 -36 c35 -23 52 -67 26 -67 -25 0 -82 45 -85 68
-4 29 15 28 59 -1z"/>
<path d="M946 825 c-8 -21 4 -76 15 -69 12 7 12 84 0 84 -5 0 -11 -7 -15 -15z"/>
<path d="M1020 830 c0 -7 -9 -24 -19 -39 -12 -17 -17 -36 -14 -54 6 -31 23
-37 23 -8 0 11 7 27 16 35 19 19 23 67 7 73 -7 3 -13 -1 -13 -7z"/>
<path d="M1110 816 c0 -13 7 -29 15 -36 8 -7 15 -19 15 -26 0 -8 5 -14 10 -14
6 0 10 14 10 30 0 20 -5 30 -15 30 -8 0 -15 9 -15 20 0 11 -4 20 -10 20 -5 0
-10 -11 -10 -24z"/>
<path d="M533 823 c-13 -2 -23 -8 -23 -13 0 -4 -23 -24 -51 -45 -51 -36 -62
-66 -27 -73 12 -2 15 2 12 15 -4 14 8 28 40 51 25 19 46 28 46 23 0 -6 8 -11
17 -11 13 0 14 3 5 12 -9 9 -8 16 5 30 9 10 12 17 7 17 -5 -1 -19 -4 -31 -6z"/>
<path d="M1326 812 c-4 -7 -4 -12 1 -12 4 0 3 -4 -4 -8 -12 -8 -6 -62 7 -62 4
0 10 12 13 27 6 32 -6 72 -17 55z"/>
<path d="M1397 806 c-3 -8 -2 -27 2 -43 4 -15 6 -48 4 -73 -2 -25 -4 -60 -6
-77 -1 -18 3 -32 8 -30 6 1 10 19 9 40 0 20 3 37 9 37 5 0 6 27 2 68 -4 37 -8
73 -8 80 0 17 -14 15 -20 -2z"/>
<path d="M1706 798 c-6 -27 3 -68 15 -68 12 0 12 77 0 84 -5 3 -11 -4 -15 -16z"/>
<path d="M1076 795 c-3 -8 -1 -27 4 -42 5 -15 11 -41 13 -57 2 -17 9 -32 16
-34 10 -3 12 6 7 39 -4 24 -7 54 -7 67 -1 12 -5 22 -11 22 -5 0 -6 5 -3 10 3
6 2 10 -3 10 -6 0 -12 -7 -16 -15z"/>
<path d="M1173 788 c2 -13 12 -40 21 -61 9 -21 16 -46 15 -55 -3 -35 1 -62 10
-62 5 0 12 10 14 23 l4 22 2 -22 c0 -13 5 -23 10 -23 12 0 22 45 15 64 -8 21
-24 20 -24 -1 0 -32 -14 -2 -16 35 -1 20 -3 40 -3 45 -1 4 -8 7 -17 7 -12 0
-15 6 -10 25 5 19 2 25 -9 25 -11 0 -14 -7 -12 -22z"/>
<path d="M1894 794 c3 -9 6 -22 6 -30 0 -9 5 -12 10 -9 17 10 12 55 -6 55 -11
0 -14 -5 -10 -16z"/>
<path d="M1237 781 c-6 -25 3 -71 14 -71 12 0 12 77 0 84 -5 3 -11 -3 -14 -13z"/>
<path d="M1536 785 c-7 -20 3 -65 15 -65 11 0 11 51 0 68 -7 11 -10 10 -15 -3z"/>
<path d="M1746 759 c-7 -44 -5 -69 5 -69 18 0 23 79 7 96 -4 3 -9 -9 -12 -27z"/>
<path d="M1828 759 c3 -20 12 -33 23 -36 11 -3 19 -12 19 -19 0 -8 5 -14 10
-14 6 0 10 16 10 35 0 19 -5 35 -11 35 -5 0 -8 -4 -5 -9 3 -5 -1 -11 -9 -15
-11 -4 -15 2 -15 24 0 18 -5 30 -13 30 -9 0 -12 -10 -9 -31z"/>
<path d="M2434 777 c-3 -9 -3 -21 1 -26 3 -7 0 -8 -9 -5 -10 4 -16 1 -16 -9 0
-27 -33 -30 -54 -5 -16 21 -17 23 -2 26 19 4 11 22 -10 22 -8 0 -14 -8 -14
-18 0 -26 34 -86 51 -90 21 -5 79 -64 79 -81 0 -11 4 -10 20 4 21 19 28 41 9
29 -11 -6 -89 62 -89 78 0 5 7 11 15 14 14 6 88 -50 91 -68 1 -4 2 -11 3 -15
2 -9 41 28 41 39 0 5 -6 8 -12 5 -7 -2 -30 9 -50 25 -38 29 -48 53 -27 60 7 2
5 9 -5 17 -13 11 -17 11 -22 -2z"/>
<path d="M1666 765 c-9 -25 -7 -65 4 -65 14 0 23 46 12 65 -8 16 -9 16 -16 0z"/>
<path d="M2020 750 c0 -20 5 -30 15 -30 10 0 15 10 15 30 0 20 -5 30 -15 30
-10 0 -15 -10 -15 -30z"/>
<path d="M1046 754 c-11 -30 -7 -64 9 -64 12 0 15 10 13 40 -2 41 -11 52 -22
24z"/>
<path d="M1276 754 c-7 -18 3 -64 14 -64 12 0 20 43 10 55 -6 7 -7 15 -3 18 3
4 2 7 -4 7 -6 0 -14 -7 -17 -16z"/>
<path d="M1351 763 c4 -26 -3 -63 -12 -63 -5 0 -7 5 -4 10 3 6 1 10 -4 10 -6
0 -11 -18 -11 -40 0 -22 5 -40 10 -40 6 0 10 6 10 14 0 8 6 21 14 28 18 19 28
52 20 72 -6 16 -25 23 -23 9z"/>
<path d="M1506 745 c-11 -30 -7 -65 9 -65 9 0 15 -9 15 -25 0 -14 5 -25 10
-25 6 0 10 6 10 14 0 8 3 21 6 30 4 12 0 16 -16 16 -17 0 -20 4 -15 20 3 11 2
27 -3 36 -8 15 -10 15 -16 -1z"/>
<path d="M512 730 c-59 -36 -67 -91 -17 -110 14 -5 25 -16 25 -23 0 -7 13 -25
28 -40 l29 -27 18 20 c10 11 15 23 11 27 -4 4 -11 1 -16 -7 -8 -13 -11 -13
-26 2 -15 15 -12 18 45 38 34 13 64 26 66 30 2 4 -8 19 -24 34 l-28 26 -18
-21 c-19 -20 -19 -20 7 -14 51 13 38 -14 -17 -34 -61 -23 -79 -26 -70 -12 3 5
-4 12 -15 16 -22 7 -25 26 -9 57 11 20 11 20 38 -6 27 -26 28 -26 45 -7 10 11
16 30 14 43 -4 31 -43 35 -86 8z m66 -17 c-2 -10 -10 -18 -18 -18 -8 0 -16 8
-18 18 -2 12 3 17 18 17 15 0 20 -5 18 -17z"/>
<path d="M1448 723 c0 -10 0 -30 1 -45 1 -16 -2 -28 -6 -28 -5 0 -10 -18 -11
-40 -2 -23 2 -40 8 -40 10 0 14 26 11 62 -1 9 3 19 9 23 13 8 13 72 0 80 -5 3
-11 -2 -12 -12z"/>
<path d="M1145 721 c3 -5 1 -12 -3 -15 -11 -6 -3 -56 8 -56 10 0 19 50 13 67
-3 7 -9 13 -15 13 -5 0 -7 -4 -3 -9z"/>
<path d="M1696 704 c-7 -18 3 -64 14 -64 10 0 20 50 13 67 -7 18 -20 16 -27
-3z"/>
<path d="M1900 690 c0 -16 5 -30 10 -30 6 0 10 3 10 8 0 4 3 17 6 30 5 16 2
22 -10 22 -11 0 -16 -9 -16 -30z"/>
<path d="M1620 683 c0 -22 -2 -25 -10 -13 -14 21 -29 -3 -22 -36 6 -31 22 -42
22 -15 0 11 6 24 14 28 8 4 18 20 21 36 6 21 4 27 -9 27 -11 0 -16 -9 -16 -27z"/>
<path d="M1840 680 c0 -16 5 -30 10 -30 6 0 10 14 10 30 0 17 -4 30 -10 30 -5
0 -10 -13 -10 -30z"/>
<path d="M1170 660 c0 -16 5 -30 10 -30 6 0 10 6 10 14 0 8 3 21 6 30 4 11 1
16 -10 16 -11 0 -16 -9 -16 -30z"/>
<path d="M1286 665 c-11 -30 -7 -65 9 -65 17 0 21 46 6 68 -7 11 -10 10 -15
-3z"/>
<path d="M1734 658 c3 -13 6 -26 6 -30 0 -5 5 -8 10 -8 6 0 10 14 10 30 0 21
-5 30 -16 30 -12 0 -15 -6 -10 -22z"/>
<path d="M1804 664 c3 -9 6 -22 6 -30 0 -8 5 -14 10 -14 6 0 10 14 10 30 0 21
-5 30 -16 30 -11 0 -14 -5 -10 -16z"/>
<path d="M1666 654 c-11 -30 -7 -64 9 -64 12 0 15 10 13 40 -2 41 -11 52 -22
24z"/>
<path d="M1352 620 c-2 -28 1 -40 10 -40 12 0 15 22 10 68 -4 28 -18 9 -20
-28z"/>
<path d="M1468 643 c-5 -27 3 -73 13 -73 5 0 9 20 9 45 0 44 -15 63 -22 28z"/>
<path d="M1506 635 c-11 -30 -7 -65 9 -65 17 0 21 46 6 68 -7 11 -10 10 -15
-3z"/>
<path d="M1556 634 c-8 -20 3 -64 15 -64 6 0 9 18 7 40 -2 41 -11 52 -22 24z"/>
<path d="M2287 629 c-38 -22 -15 -69 39 -78 27 -4 40 -12 42 -25 3 -16 0 -18
-24 -12 -23 6 -26 5 -15 -7 6 -9 8 -18 3 -20 -4 -3 -27 16 -51 44 -23 27 -46
49 -51 49 -17 0 -66 -53 -52 -57 7 -3 26 -24 42 -48 24 -35 27 -45 16 -54 -10
-9 -21 1 -50 44 -37 56 -52 65 -74 43 -16 -16 -15 -48 2 -48 9 0 12 7 9 20 -6
24 9 26 27 5 10 -13 10 -19 -4 -33 -22 -25 -20 -55 5 -78 21 -18 21 -18 37 1
10 11 22 20 27 20 15 0 75 38 75 47 0 4 -6 8 -12 8 -7 0 -26 19 -42 41 -22 31
-26 43 -16 52 9 9 19 3 46 -28 18 -22 34 -46 34 -52 0 -20 18 -15 32 7 7 11
21 20 30 20 25 0 39 30 26 55 -15 28 -28 35 -65 35 -23 0 -33 5 -33 16 0 11 6
14 20 9 22 -7 27 7 7 23 -8 7 -18 7 -30 1z m-103 -195 c10 -27 7 -44 -9 -44
-18 0 -30 24 -21 45 7 20 22 19 30 -1z"/>
<path d="M706 530 c-16 -39 -26 -73 -23 -77 4 -3 26 10 49 29 24 19 54 41 67
48 21 11 22 14 8 22 -13 7 -25 -1 -53 -32 -20 -22 -39 -39 -41 -36 -8 7 37 86
48 86 8 0 7 5 -1 15 -7 8 -15 15 -19 15 -3 0 -19 -32 -35 -70z"/>
<path d="M636 581 c-8 -12 31 -44 44 -36 8 5 6 13 -6 26 -19 21 -30 24 -38 10z"/>
<path d="M1216 535 c-3 -8 -12 -15 -21 -15 -8 0 -15 -7 -15 -15 0 -19 16 -19
27 -1 7 13 11 13 27 0 16 -11 17 -17 8 -26 -9 -9 -12 -9 -12 0 0 7 -4 12 -10
12 -16 0 -12 -20 6 -27 9 -3 23 2 32 12 16 16 16 18 -5 32 -28 19 -30 37 -3
28 11 -4 20 -2 20 4 0 17 -47 13 -54 -4z"/>
<path d="M1280 505 c0 -25 5 -45 10 -45 6 0 10 20 10 45 0 25 -4 45 -10 45 -5
0 -10 -20 -10 -45z"/>
<path d="M1537 543 c-13 -13 -7 -25 7 -14 24 20 30 -8 7 -33 -12 -12 -21 -26
-21 -30 0 -12 53 -2 58 12 2 8 -2 10 -13 6 -15 -6 -15 -4 -4 13 20 33 -9 72
-34 46z"/>
<path d="M1600 529 c-16 -28 2 -72 28 -67 24 5 25 81 0 86 -9 2 -22 -6 -28
-19z m35 -39 c-4 -11 -11 -18 -16 -15 -11 7 -12 48 -2 59 11 11 25 -23 18 -44z"/>
<path d="M1665 539 c-4 -6 -4 -13 0 -17 3 -3 10 0 14 7 6 10 10 10 16 1 4 -6
-2 -21 -14 -34 -28 -30 -27 -36 9 -36 20 0 30 5 30 15 0 9 -6 12 -17 8 -16 -6
-16 -4 1 15 10 12 16 28 13 37 -7 17 -43 20 -52 4z"/>
<path d="M1737 544 c-14 -14 -7 -26 8 -14 12 10 15 10 15 -3 0 -8 -6 -18 -12
-20 -8 -3 -6 -6 5 -6 17 -1 22 -12 10 -24 -3 -4 -12 -2 -20 4 -9 9 -13 8 -13
0 0 -17 28 -25 44 -12 9 8 11 22 7 44 -6 30 -29 46 -44 31z"/>
<path d="M824 520 c-29 -11 -64 -62 -64 -93 0 -58 64 -60 99 -3 38 61 18 116
-35 96z m36 -40 c0 -23 -47 -80 -66 -80 -19 0 -18 30 2 60 34 51 64 60 64 20z"/>
<path d="M1319 526 c0 0 -2 -16 -3 -33 -3 -21 1 -33 9 -33 8 0 10 9 7 25 -2
15 0 25 7 25 6 0 11 -11 11 -25 0 -14 5 -25 11 -25 6 0 9 14 7 33 -2 25 -8 32
-25 33 -13 1 -23 1 -24 0z"/>
<path d="M1387 523 c-4 -3 -7 -17 -7 -30 0 -26 26 -41 42 -25 7 7 16 7 29 -1
14 -9 21 -9 31 1 9 9 7 12 -12 13 l-25 0 24 10 c23 9 23 11 8 26 -13 13 -19
14 -31 3 -9 -7 -16 -19 -16 -26 0 -15 -26 -19 -34 -6 -2 4 -1 14 5 22 6 11 9
12 9 2 0 -7 5 -10 10 -7 6 4 8 11 5 16 -7 11 -29 12 -38 2z"/>
<path d="M903 472 c1 -4 -9 -31 -22 -59 -26 -56 -23 -88 8 -80 12 3 22 -1 25
-9 8 -20 26 -17 26 4 0 10 11 42 25 70 30 63 30 62 5 62 -12 0 -20 -6 -18 -12
5 -23 -31 -98 -47 -98 -22 0 -19 24 10 80 25 48 25 50 5 50 -11 0 -19 -4 -17
-8z"/>
<path d="M2030 465 c-20 -24 3 -64 41 -72 32 -6 46 -24 34 -43 -5 -8 -13 -6
-26 6 -15 13 -19 14 -19 3 0 -8 4 -20 9 -28 14 -21 61 2 61 29 0 25 -34 60
-59 60 -21 0 -36 26 -19 36 5 4 14 0 19 -7 4 -7 11 -10 15 -6 9 9 -15 37 -31
37 -7 0 -18 -7 -25 -15z"/>
<path d="M1804 459 c-3 -6 -2 -14 3 -18 6 -3 13 -16 17 -28 6 -17 3 -23 -8
-23 -39 0 -46 -92 -10 -131 18 -20 54 -26 54 -10 0 5 8 7 19 4 10 -3 22 0 25
6 4 6 3 11 -3 11 -5 0 -23 45 -41 100 -29 96 -40 113 -56 89z m46 -129 c13
-53 8 -72 -15 -64 -23 9 -41 80 -25 99 20 24 27 18 40 -35z"/>
<path d="M1005 420 c-16 -18 -17 -25 -7 -54 17 -45 15 -56 -9 -56 -16 0 -19 4
-14 20 3 11 2 20 -3 20 -5 0 -12 -10 -15 -22 -11 -40 37 -52 68 -18 17 19 17
23 3 54 -9 18 -13 38 -8 46 10 17 31 4 23 -15 -3 -8 -1 -15 5 -15 15 0 21 37
9 49 -16 16 -32 13 -52 -9z"/>
<path d="M1907 418 c-39 -21 -9 -132 38 -144 27 -7 55 10 55 32 0 12 -4 12
-20 2 -15 -10 -25 -10 -38 -2 -29 19 -26 41 7 49 36 8 36 8 15 40 -19 29 -35
36 -57 23z m36 -32 c3 -8 -2 -16 -14 -19 -14 -4 -19 0 -19 14 0 22 25 26 33 5z"/>
<path d="M1148 389 c-10 -5 -18 -17 -18 -24 0 -20 16 -19 24 1 8 20 26 9 26
-17 0 -13 -7 -19 -21 -19 -37 0 -59 -19 -59 -50 0 -17 3 -30 8 -31 29 -3 49
-7 63 -13 13 -6 16 -1 16 21 0 15 4 50 8 76 6 38 5 51 -6 58 -17 11 -20 11
-41 -2z m16 -91 c-7 -25 -24 -39 -36 -32 -12 8 -10 21 8 38 23 23 37 20 28 -6z"/>
<path d="M1233 374 c-7 -3 -9 -12 -6 -20 3 -8 0 -34 -6 -58 -14 -57 -6 -79 26
-73 13 2 26 0 29 -4 3 -5 12 -9 20 -9 10 0 13 7 9 23 -3 12 -1 47 4 77 5 30 8
56 6 58 -1 1 -9 0 -18 -4 -11 -4 -15 -14 -12 -28 8 -36 -9 -91 -29 -94 -20 -4
-20 7 0 106 6 31 2 36 -23 26z"/>
<path d="M1705 360 c-4 -6 -11 -8 -16 -5 -16 10 -31 -5 -19 -19 5 -7 11 -39
13 -70 2 -45 5 -56 19 -56 9 0 20 4 23 10 3 6 2 10 -3 10 -14 0 -26 100 -15
111 17 17 35 -18 36 -71 2 -50 9 -58 37 -40 11 7 12 12 3 18 -6 4 -14 25 -18
47 -4 22 -12 48 -17 58 -10 19 -33 23 -43 7z"/>
<path d="M1441 351 c-7 -5 -21 -7 -30 -4 -13 3 -16 -4 -16 -44 0 -26 -3 -60
-8 -75 -6 -25 -5 -28 15 -28 22 0 23 4 23 63 0 48 3 62 15 62 11 0 15 -12 15
-52 0 -29 -3 -53 -7 -53 -5 0 -8 -4 -8 -10 0 -5 10 -10 23 -10 22 0 23 3 19
65 -4 54 -2 65 11 65 24 0 36 -93 15 -117 -8 -10 -3 -13 23 -13 26 0 30 3 21
12 -7 7 -12 30 -12 53 0 70 -9 88 -40 82 -15 -3 -31 -2 -36 3 -5 5 -15 5 -23
1z"/>
<path d="M1576 338 c-32 -46 -10 -138 33 -138 49 0 68 85 30 134 -25 32 -43
33 -63 4z m53 -35 c13 -45 4 -85 -17 -81 -32 6 -39 118 -7 118 8 0 19 -17 24
-37z"/>
</g>
</svg>
